<?xml version="1.0" encoding="UTF-8" standalone="no"?>
<!DOCTYPE svg PUBLIC "-//W3C//DTD SVG 1.1//EN"
 "http://www.w3.org/Graphics/SVG/1.1/DTD/svg11.dtd">
<!-- Generated by graphviz version 2.43.0 (0)
 -->
<!-- Title: CFG for &#39;add&#39; function Pages: 1 -->
<svg width="1276pt" height="763pt"
 viewBox="0.00 0.00 1276.00 763.00" xmlns="http://www.w3.org/2000/svg" xmlns:xlink="http://www.w3.org/1999/xlink">
<g id="graph0" class="graph" transform="scale(1 1) rotate(0) translate(4 759)">
<title>CFG for &#39;add&#39; function</title>
<polygon fill="white" stroke="transparent" points="-4,4 -4,-759 1272,-759 1272,4 -4,4"/>
<text text-anchor="middle" x="634" y="-7.8" font-family="Times,serif" font-size="14.00">CFG for &#39;add&#39; function</text>
<!-- Node0x5dad61a38d20 -->
<g id="node1" class="node">
<title>Node0x5dad61a38d20</title>
<polygon fill="#b70d28" fill-opacity="0.439216" stroke="#b70d28" points="0,-595.5 0,-754.5 553,-754.5 553,-595.5 0,-595.5"/>
<text text-anchor="start" x="8" y="-739.3" font-family="Courier,monospace" font-size="14.00">3:</text>
<polyline fill="none" stroke="#b70d28" points="0,-731.5 553,-731.5 "/>
<text text-anchor="start" x="8" y="-716.3" font-family="Courier,monospace" font-size="14.00">%4 = getelementptr inbounds %struct.vector, ptr %0, i64 0, i32 2</text>
<text text-anchor="start" x="8" y="-701.3" font-family="Courier,monospace" font-size="14.00"> %5 = load i32, ptr %4, align 4, !tbaa !5</text>
<text text-anchor="start" x="8" y="-686.3" font-family="Courier,monospace" font-size="14.00"> %6 = getelementptr inbounds %struct.vector, ptr %0, i64 0, i32 1</text>
<text text-anchor="start" x="8" y="-671.3" font-family="Courier,monospace" font-size="14.00"> %7 = load i32, ptr %6, align 8, !tbaa !11</text>
<text text-anchor="start" x="8" y="-656.3" font-family="Courier,monospace" font-size="14.00"> %8 = add nsw i32 %7, 1</text>
<text text-anchor="start" x="8" y="-641.3" font-family="Courier,monospace" font-size="14.00"> %9 = icmp sgt i32 %5, %8</text>
<text text-anchor="start" x="8" y="-626.3" font-family="Courier,monospace" font-size="14.00"> br i1 %9, label %20, label %10</text>
<polyline fill="none" stroke="#b70d28" points="0,-618.5 553,-618.5 "/>
<text text-anchor="middle" x="138" y="-603.3" font-family="Courier,monospace" font-size="14.00">T</text>
<polyline fill="none" stroke="#b70d28" points="276,-595.5 276,-618.5 "/>
<text text-anchor="middle" x="414.5" y="-603.3" font-family="Courier,monospace" font-size="14.00">F</text>
</g>
<!-- Node0x5dad61a3aa40 -->
<g id="node2" class="node">
<title>Node0x5dad61a3aa40</title>
<polygon fill="#b70d28" fill-opacity="0.439216" stroke="#b70d28" points="112,-23.5 112,-249.5 681,-249.5 681,-23.5 112,-23.5"/>
<text text-anchor="start" x="120" y="-234.3" font-family="Courier,monospace" font-size="14.00">20:</text>
<polyline fill="none" stroke="#b70d28" points="112,-226.5 681,-226.5 "/>
<text text-anchor="start" x="120" y="-211.3" font-family="Courier,monospace" font-size="14.00">%21 = load ptr, ptr %0, align 8, !tbaa !12</text>
<text text-anchor="start" x="120" y="-196.3" font-family="Courier,monospace" font-size="14.00"> %22 = load i32, ptr %6, align 8, !tbaa !11</text>
<text text-anchor="start" x="120" y="-181.3" font-family="Courier,monospace" font-size="14.00"> %23 = sext i32 %22 to i64</text>
<text text-anchor="start" x="120" y="-166.3" font-family="Courier,monospace" font-size="14.00"> %24 = getelementptr inbounds %struct.Edge, ptr %21, i64 %23</text>
<text text-anchor="start" x="120" y="-151.3" font-family="Courier,monospace" font-size="14.00"> store i32 %1, ptr %24, align 8, !tbaa !13</text>
<text text-anchor="start" x="120" y="-136.3" font-family="Courier,monospace" font-size="14.00"> %25 = load i32, ptr @ind, align 4, !tbaa !16</text>
<text text-anchor="start" x="120" y="-121.3" font-family="Courier,monospace" font-size="14.00"> %26 = getelementptr inbounds %struct.Edge, ptr %21, i64 %23, i32 2</text>
<text text-anchor="start" x="120" y="-106.3" font-family="Courier,monospace" font-size="14.00"> store i32 %25, ptr %26, align 8, !tbaa !17</text>
<text text-anchor="start" x="120" y="-91.3" font-family="Courier,monospace" font-size="14.00"> %27 = add nsw i32 %22, 1</text>
<text text-anchor="start" x="120" y="-76.3" font-family="Courier,monospace" font-size="14.00"> store i32 %27, ptr %6, align 8, !tbaa !11</text>
<text text-anchor="start" x="120" y="-61.3" font-family="Courier,monospace" font-size="14.00"> %28 = getelementptr inbounds %struct.Edge, ptr %21, i64 %23, i32 1</text>
<text text-anchor="start" x="120" y="-46.3" font-family="Courier,monospace" font-size="14.00"> store i64 %2, ptr %28, align 8, !tbaa !18</text>
<text text-anchor="start" x="120" y="-31.3" font-family="Courier,monospace" font-size="14.00"> ret void</text>
</g>
<!-- Node0x5dad61a38d20&#45;&gt;Node0x5dad61a3aa40 -->
<g id="edge1" class="edge">
<title>Node0x5dad61a38d20:s0&#45;&gt;Node0x5dad61a3aa40</title>
<g id="a_edge1"><a xlink:title="3 &#45;&gt; 20&#10;Probability 50.00%">
<path fill="none" stroke="black" d="M137.5,-595C137.5,-456.79 30.08,-403.72 102.5,-286 108.88,-275.63 116.23,-265.96 124.35,-256.94"/>
<polygon fill="black" stroke="black" points="127.03,-259.2 131.34,-249.52 121.94,-254.4 127.03,-259.2"/>
</a>
</g>
</g>
<!-- Node0x5dad61a3aae0 -->
<g id="node3" class="node">
<title>Node0x5dad61a3aae0</title>
<polygon fill="#be242e" fill-opacity="0.439216" stroke="#3d50c3" points="327,-474.5 327,-558.5 608,-558.5 608,-474.5 327,-474.5"/>
<text text-anchor="start" x="335" y="-543.3" font-family="Courier,monospace" font-size="14.00">10:</text>
<polyline fill="none" stroke="#3d50c3" points="327,-535.5 608,-535.5 "/>
<text text-anchor="start" x="335" y="-520.3" font-family="Courier,monospace" font-size="14.00">%11 = icmp eq i32 %5, 0</text>
<text text-anchor="start" x="335" y="-505.3" font-family="Courier,monospace" font-size="14.00"> br i1 %11, label %12, label %14</text>
<polyline fill="none" stroke="#3d50c3" points="327,-497.5 608,-497.5 "/>
<text text-anchor="middle" x="397" y="-482.3" font-family="Courier,monospace" font-size="14.00">T</text>
<polyline fill="none" stroke="#3d50c3" points="467,-474.5 467,-497.5 "/>
<text text-anchor="middle" x="537.5" y="-482.3" font-family="Courier,monospace" font-size="14.00">F</text>
</g>
<!-- Node0x5dad61a38d20&#45;&gt;Node0x5dad61a3aae0 -->
<g id="edge2" class="edge">
<title>Node0x5dad61a38d20:s1&#45;&gt;Node0x5dad61a3aae0</title>
<g id="a_edge2"><a xlink:title="3 &#45;&gt; 10&#10;Probability 50.00%">
<path fill="none" stroke="black" d="M414.5,-595C414.5,-585.32 417.35,-575.96 421.73,-567.3"/>
<polygon fill="black" stroke="black" points="424.82,-568.94 426.79,-558.53 418.76,-565.44 424.82,-568.94"/>
</a>
</g>
</g>
<!-- Node0x5dad61a3acc0 -->
<g id="node4" class="node">
<title>Node0x5dad61a3acc0</title>
<polygon fill="#c53334" fill-opacity="0.439216" stroke="#3d50c3" points="112,-309 112,-415 681,-415 681,-309 112,-309"/>
<text text-anchor="start" x="120" y="-399.8" font-family="Courier,monospace" font-size="14.00">12:</text>
<polyline fill="none" stroke="#3d50c3" points="112,-392 681,-392 "/>
<text text-anchor="start" x="120" y="-376.8" font-family="Courier,monospace" font-size="14.00">%13 = tail call noalias dereferenceable_or_null(24) ptr @malloc(i64</text>
<text text-anchor="start" x="120" y="-361.8" font-family="Courier,monospace" font-size="14.00">... noundef 24) #10</text>
<text text-anchor="start" x="120" y="-346.8" font-family="Courier,monospace" font-size="14.00"> store ptr %13, ptr %0, align 8, !tbaa !12</text>
<text text-anchor="start" x="120" y="-331.8" font-family="Courier,monospace" font-size="14.00"> store i32 1, ptr %4, align 4, !tbaa !5</text>
<text text-anchor="start" x="120" y="-316.8" font-family="Courier,monospace" font-size="14.00"> br label %20</text>
</g>
<!-- Node0x5dad61a3aae0&#45;&gt;Node0x5dad61a3acc0 -->
<g id="edge3" class="edge">
<title>Node0x5dad61a3aae0:s0&#45;&gt;Node0x5dad61a3acc0</title>
<g id="a_edge3"><a xlink:title="10 &#45;&gt; 12&#10;Probability 37.50%">
<path fill="none" stroke="black" d="M396.5,-474C396.5,-458.27 396.5,-441.29 396.5,-425.45"/>
<polygon fill="black" stroke="black" points="400,-425.23 396.5,-415.23 393,-425.23 400,-425.23"/>
</a>
</g>
</g>
<!-- Node0x5dad61a3ad20 -->
<g id="node5" class="node">
<title>Node0x5dad61a3ad20</title>
<polygon fill="#c32e31" fill-opacity="0.439216" stroke="#3d50c3" points="699,-286.5 699,-437.5 1268,-437.5 1268,-286.5 699,-286.5"/>
<text text-anchor="start" x="707" y="-422.3" font-family="Courier,monospace" font-size="14.00">14:</text>
<polyline fill="none" stroke="#3d50c3" points="699,-414.5 1268,-414.5 "/>
<text text-anchor="start" x="707" y="-399.3" font-family="Courier,monospace" font-size="14.00">%15 = shl nsw i32 %5, 1</text>
<text text-anchor="start" x="707" y="-384.3" font-family="Courier,monospace" font-size="14.00"> store i32 %15, ptr %4, align 4, !tbaa !5</text>
<text text-anchor="start" x="707" y="-369.3" font-family="Courier,monospace" font-size="14.00"> %16 = load ptr, ptr %0, align 8, !tbaa !12</text>
<text text-anchor="start" x="707" y="-354.3" font-family="Courier,monospace" font-size="14.00"> %17 = sext i32 %15 to i64</text>
<text text-anchor="start" x="707" y="-339.3" font-family="Courier,monospace" font-size="14.00"> %18 = mul nsw i64 %17, 24</text>
<text text-anchor="start" x="707" y="-324.3" font-family="Courier,monospace" font-size="14.00"> %19 = tail call ptr @realloc(ptr noundef %16, i64 noundef %18) #11</text>
<text text-anchor="start" x="707" y="-309.3" font-family="Courier,monospace" font-size="14.00"> store ptr %19, ptr %0, align 8, !tbaa !12</text>
<text text-anchor="start" x="707" y="-294.3" font-family="Courier,monospace" font-size="14.00"> br label %20</text>
</g>
<!-- Node0x5dad61a3aae0&#45;&gt;Node0x5dad61a3ad20 -->
<g id="edge4" class="edge">
<title>Node0x5dad61a3aae0:s1&#45;&gt;Node0x5dad61a3ad20</title>
<g id="a_edge4"><a xlink:title="10 &#45;&gt; 14&#10;Probability 62.50%">
<path fill="none" stroke="black" d="M609.5,-485.5C680.65,-485.5 755.79,-465.23 819.91,-441.19"/>
<polygon fill="black" stroke="black" points="821.19,-444.44 829.29,-437.61 818.7,-437.9 821.19,-444.44"/>
</a>
</g>
</g>
<!-- Node0x5dad61a3acc0&#45;&gt;Node0x5dad61a3aa40 -->
<g id="edge5" class="edge">
<title>Node0x5dad61a3acc0&#45;&gt;Node0x5dad61a3aa40</title>
<g id="a_edge5"><a xlink:title="12 &#45;&gt; 20&#10;Probability 100.00%">
<path fill="none" stroke="black" d="M396.5,-308.88C396.5,-294 396.5,-277.13 396.5,-259.91"/>
<polygon fill="black" stroke="black" points="400,-259.75 396.5,-249.75 393,-259.75 400,-259.75"/>
</a>
</g>
</g>
<!-- Node0x5dad61a3ad20&#45;&gt;Node0x5dad61a3aa40 -->
<g id="edge6" class="edge">
<title>Node0x5dad61a3ad20&#45;&gt;Node0x5dad61a3aa40</title>
<g id="a_edge6"><a xlink:title="14 &#45;&gt; 20&#10;Probability 100.00%">
<path fill="none" stroke="black" d="M787.63,-286.42C756.45,-274.55 723.61,-262.05 690.76,-249.54"/>
<polygon fill="black" stroke="black" points="691.62,-246.12 681.03,-245.84 689.13,-252.67 691.62,-246.12"/>
</a>
</g>
</g>
</g>
</svg>
