<?xml version="1.0" encoding="UTF-8" standalone="no"?>
<!DOCTYPE svg PUBLIC "-//W3C//DTD SVG 1.1//EN"
 "http://www.w3.org/Graphics/SVG/1.1/DTD/svg11.dtd">
<!-- Generated by graphviz version 2.43.0 (0)
 -->
<!-- Title: CFG for &#39;SiftUp&#39; function Pages: 1 -->
<svg width="790pt" height="816pt"
 viewBox="0.00 0.00 789.85 816.00" xmlns="http://www.w3.org/2000/svg" xmlns:xlink="http://www.w3.org/1999/xlink">
<g id="graph0" class="graph" transform="scale(1 1) rotate(0) translate(4 812)">
<title>CFG for &#39;SiftUp&#39; function</title>
<polygon fill="white" stroke="transparent" points="-4,4 -4,-812 785.85,-812 785.85,4 -4,4"/>
<text text-anchor="middle" x="390.92" y="-7.8" font-family="Times,serif" font-size="14.00">CFG for &#39;SiftUp&#39; function</text>
<!-- Node0x5dad61aa7380 -->
<g id="node1" class="node">
<title>Node0x5dad61aa7380</title>
<polygon fill="#cc403a" fill-opacity="0.439216" stroke="#3d50c3" points="483,-723.5 483,-807.5 747,-807.5 747,-723.5 483,-723.5"/>
<text text-anchor="start" x="491" y="-792.3" font-family="Courier,monospace" font-size="14.00">2:</text>
<polyline fill="none" stroke="#3d50c3" points="483,-784.5 747,-784.5 "/>
<text text-anchor="start" x="491" y="-769.3" font-family="Courier,monospace" font-size="14.00">%3 = icmp sgt i32 %1, 0</text>
<text text-anchor="start" x="491" y="-754.3" font-family="Courier,monospace" font-size="14.00"> br i1 %3, label %4, label %29</text>
<polyline fill="none" stroke="#3d50c3" points="483,-746.5 747,-746.5 "/>
<text text-anchor="middle" x="549" y="-731.3" font-family="Courier,monospace" font-size="14.00">T</text>
<polyline fill="none" stroke="#3d50c3" points="615,-723.5 615,-746.5 "/>
<text text-anchor="middle" x="681" y="-731.3" font-family="Courier,monospace" font-size="14.00">F</text>
</g>
<!-- Node0x5dad61aa7470 -->
<g id="node2" class="node">
<title>Node0x5dad61aa7470</title>
<polygon fill="#b70d28" fill-opacity="0.439216" stroke="#b70d28" points="142.5,-377.5 142.5,-686.5 753.5,-686.5 753.5,-377.5 142.5,-377.5"/>
<text text-anchor="start" x="150.5" y="-671.3" font-family="Courier,monospace" font-size="14.00">4:</text>
<polyline fill="none" stroke="#b70d28" points="142.5,-663.5 753.5,-663.5 "/>
<text text-anchor="start" x="150.5" y="-648.3" font-family="Courier,monospace" font-size="14.00">%5 = phi i32 [ %13, %21 ], [ %1, %2 ]</text>
<text text-anchor="start" x="150.5" y="-633.3" font-family="Courier,monospace" font-size="14.00"> %6 = zext nneg i32 %5 to i64</text>
<text text-anchor="start" x="150.5" y="-618.3" font-family="Courier,monospace" font-size="14.00"> %7 = getelementptr inbounds [100001 x i32], ptr %0, i64 0, i64 %6</text>
<text text-anchor="start" x="150.5" y="-603.3" font-family="Courier,monospace" font-size="14.00"> %8 = load i32, ptr %7, align 4, !tbaa !5</text>
<text text-anchor="start" x="150.5" y="-588.3" font-family="Courier,monospace" font-size="14.00"> %9 = sext i32 %8 to i64</text>
<text text-anchor="start" x="150.5" y="-573.3" font-family="Courier,monospace" font-size="14.00"> %10 = getelementptr inbounds [100001 x i64], ptr @dist1, i64 0, i64 %9</text>
<text text-anchor="start" x="150.5" y="-558.3" font-family="Courier,monospace" font-size="14.00"> %11 = load i64, ptr %10, align 8, !tbaa !9</text>
<text text-anchor="start" x="150.5" y="-543.3" font-family="Courier,monospace" font-size="14.00"> %12 = add nsw i32 %5, &#45;1</text>
<text text-anchor="start" x="150.5" y="-528.3" font-family="Courier,monospace" font-size="14.00"> %13 = lshr i32 %12, 1</text>
<text text-anchor="start" x="150.5" y="-513.3" font-family="Courier,monospace" font-size="14.00"> %14 = zext nneg i32 %13 to i64</text>
<text text-anchor="start" x="150.5" y="-498.3" font-family="Courier,monospace" font-size="14.00"> %15 = getelementptr inbounds [100001 x i32], ptr %0, i64 0, i64 %14</text>
<text text-anchor="start" x="150.5" y="-483.3" font-family="Courier,monospace" font-size="14.00"> %16 = load i32, ptr %15, align 4, !tbaa !5</text>
<text text-anchor="start" x="150.5" y="-468.3" font-family="Courier,monospace" font-size="14.00"> %17 = sext i32 %16 to i64</text>
<text text-anchor="start" x="150.5" y="-453.3" font-family="Courier,monospace" font-size="14.00"> %18 = getelementptr inbounds [100001 x i64], ptr @dist1, i64 0, i64 %17</text>
<text text-anchor="start" x="150.5" y="-438.3" font-family="Courier,monospace" font-size="14.00"> %19 = load i64, ptr %18, align 8, !tbaa !9</text>
<text text-anchor="start" x="150.5" y="-423.3" font-family="Courier,monospace" font-size="14.00"> %20 = icmp ult i64 %11, %19</text>
<text text-anchor="start" x="150.5" y="-408.3" font-family="Courier,monospace" font-size="14.00"> br i1 %20, label %21, label %29</text>
<polyline fill="none" stroke="#b70d28" points="142.5,-400.5 753.5,-400.5 "/>
<text text-anchor="middle" x="295" y="-385.3" font-family="Courier,monospace" font-size="14.00">T</text>
<polyline fill="none" stroke="#b70d28" points="447.5,-377.5 447.5,-400.5 "/>
<text text-anchor="middle" x="600.5" y="-385.3" font-family="Courier,monospace" font-size="14.00">F</text>
</g>
<!-- Node0x5dad61aa7380&#45;&gt;Node0x5dad61aa7470 -->
<g id="edge1" class="edge">
<title>Node0x5dad61aa7380:s0&#45;&gt;Node0x5dad61aa7470</title>
<g id="a_edge1"><a xlink:title="2 &#45;&gt; 4&#10;Probability 62.50%">
<path fill="none" stroke="black" d="M482,-734.5C456.86,-734.5 443.03,-719.06 436.18,-696.72"/>
<polygon fill="black" stroke="black" points="439.5,-695.58 433.66,-686.75 432.72,-697.3 439.5,-695.58"/>
</a>
</g>
</g>
<!-- Node0x5dad61aa74d0 -->
<g id="node3" class="node">
<title>Node0x5dad61aa74d0</title>
<polygon fill="#cc403a" fill-opacity="0.439216" stroke="#3d50c3" points="580.5,-23.5 580.5,-69.5 663.5,-69.5 663.5,-23.5 580.5,-23.5"/>
<text text-anchor="start" x="588.5" y="-54.3" font-family="Courier,monospace" font-size="14.00">29:</text>
<polyline fill="none" stroke="#3d50c3" points="580.5,-46.5 663.5,-46.5 "/>
<text text-anchor="start" x="588.5" y="-31.3" font-family="Courier,monospace" font-size="14.00">ret void</text>
</g>
<!-- Node0x5dad61aa7380&#45;&gt;Node0x5dad61aa74d0 -->
<g id="edge2" class="edge">
<title>Node0x5dad61aa7380:s1&#45;&gt;Node0x5dad61aa74d0</title>
<g id="a_edge2"><a xlink:title="2 &#45;&gt; 29&#10;Probability 37.50%">
<path fill="none" stroke="black" d="M748,-734.5C769.76,-734.5 802.78,-571.08 763,-377 739.21,-260.94 672.81,-135.25 640.34,-78.46"/>
<polygon fill="black" stroke="black" points="643.28,-76.54 635.25,-69.63 637.22,-80.04 643.28,-76.54"/>
</a>
</g>
</g>
<!-- Node0x5dad61aa7470&#45;&gt;Node0x5dad61aa74d0 -->
<g id="edge4" class="edge">
<title>Node0x5dad61aa7470:s1&#45;&gt;Node0x5dad61aa74d0</title>
<g id="a_edge4"><a xlink:title="4 &#45;&gt; 29&#10;Probability 3.12%">
<path fill="none" stroke="black" d="M601,-377C601,-369.63 614.57,-161.24 619.89,-79.74"/>
<polygon fill="black" stroke="black" points="623.4,-79.76 620.56,-69.56 616.41,-79.31 623.4,-79.76"/>
</a>
</g>
</g>
<!-- Node0x5dad61aa7610 -->
<g id="node4" class="node">
<title>Node0x5dad61aa7610</title>
<polygon fill="#b70d28" fill-opacity="0.439216" stroke="#b70d28" points="0,-106.5 0,-340.5 594,-340.5 594,-106.5 0,-106.5"/>
<text text-anchor="start" x="8" y="-325.3" font-family="Courier,monospace" font-size="14.00">21:</text>
<polyline fill="none" stroke="#b70d28" points="0,-317.5 594,-317.5 "/>
<text text-anchor="start" x="8" y="-302.3" font-family="Courier,monospace" font-size="14.00">%22 = getelementptr inbounds [100001 x i32], ptr @num, i64 0, i64 %9</text>
<text text-anchor="start" x="8" y="-287.3" font-family="Courier,monospace" font-size="14.00"> store i32 %13, ptr %22, align 4, !tbaa !5</text>
<text text-anchor="start" x="8" y="-272.3" font-family="Courier,monospace" font-size="14.00"> %23 = load i32, ptr %15, align 4, !tbaa !5</text>
<text text-anchor="start" x="8" y="-257.3" font-family="Courier,monospace" font-size="14.00"> %24 = sext i32 %23 to i64</text>
<text text-anchor="start" x="8" y="-242.3" font-family="Courier,monospace" font-size="14.00"> %25 = getelementptr inbounds [100001 x i32], ptr @num, i64 0, i64 %24</text>
<text text-anchor="start" x="8" y="-227.3" font-family="Courier,monospace" font-size="14.00"> store i32 %5, ptr %25, align 4, !tbaa !5</text>
<text text-anchor="start" x="8" y="-212.3" font-family="Courier,monospace" font-size="14.00"> %26 = load i32, ptr %7, align 4, !tbaa !5</text>
<text text-anchor="start" x="8" y="-197.3" font-family="Courier,monospace" font-size="14.00"> %27 = load i32, ptr %15, align 4, !tbaa !5</text>
<text text-anchor="start" x="8" y="-182.3" font-family="Courier,monospace" font-size="14.00"> store i32 %27, ptr %7, align 4, !tbaa !5</text>
<text text-anchor="start" x="8" y="-167.3" font-family="Courier,monospace" font-size="14.00"> store i32 %26, ptr %15, align 4, !tbaa !5</text>
<text text-anchor="start" x="8" y="-152.3" font-family="Courier,monospace" font-size="14.00"> %28 = icmp ult i32 %12, 2</text>
<text text-anchor="start" x="8" y="-137.3" font-family="Courier,monospace" font-size="14.00"> br i1 %28, label %29, label %4, !llvm.loop !11</text>
<polyline fill="none" stroke="#b70d28" points="0,-129.5 594,-129.5 "/>
<text text-anchor="middle" x="148.5" y="-114.3" font-family="Courier,monospace" font-size="14.00">T</text>
<polyline fill="none" stroke="#b70d28" points="297,-106.5 297,-129.5 "/>
<text text-anchor="middle" x="445.5" y="-114.3" font-family="Courier,monospace" font-size="14.00">F</text>
</g>
<!-- Node0x5dad61aa7470&#45;&gt;Node0x5dad61aa7610 -->
<g id="edge3" class="edge">
<title>Node0x5dad61aa7470:s0&#45;&gt;Node0x5dad61aa7610</title>
<g id="a_edge3"><a xlink:title="4 &#45;&gt; 21&#10;Probability 96.88%">
<path fill="none" stroke="black" d="M295,-377C295,-368.44 295.03,-359.61 295.09,-350.71"/>
<polygon fill="black" stroke="black" points="298.59,-350.68 295.16,-340.65 291.59,-350.63 298.59,-350.68"/>
</a>
</g>
</g>
<!-- Node0x5dad61aa7610&#45;&gt;Node0x5dad61aa7470 -->
<g id="edge6" class="edge">
<title>Node0x5dad61aa7610:s1&#45;&gt;Node0x5dad61aa7470</title>
<g id="a_edge6"><a xlink:title="21 &#45;&gt; 4&#10;Probability 96.88%">
<path fill="none" stroke="black" d="M446,-105.5C446,-89.06 582.41,-94.83 594,-106.5 612.36,-124.99 602.38,-316.33 594,-341 590.9,-350.14 587.16,-359.17 582.92,-368.06"/>
<polygon fill="black" stroke="black" points="579.66,-366.75 578.33,-377.26 585.93,-369.88 579.66,-366.75"/>
</a>
</g>
</g>
<!-- Node0x5dad61aa7610&#45;&gt;Node0x5dad61aa74d0 -->
<g id="edge5" class="edge">
<title>Node0x5dad61aa7610:s0&#45;&gt;Node0x5dad61aa74d0</title>
<g id="a_edge5"><a xlink:title="21 &#45;&gt; 29&#10;Probability 3.12%">
<path fill="none" stroke="black" d="M148,-106C148,-63.85 447,-51.75 570.05,-48.56"/>
<polygon fill="black" stroke="black" points="570.44,-52.05 580.35,-48.3 570.27,-45.05 570.44,-52.05"/>
</a>
</g>
</g>
</g>
</svg>
