<?xml version="1.0" encoding="UTF-8" standalone="no"?>
<!DOCTYPE svg PUBLIC "-//W3C//DTD SVG 1.1//EN"
 "http://www.w3.org/Graphics/SVG/1.1/DTD/svg11.dtd">
<!-- Generated by graphviz version 2.43.0 (0)
 -->
<!-- Title: CFG for &#39;add&#39; function Pages: 1 -->
<svg width="1234pt" height="763pt"
 viewBox="0.00 0.00 1233.84 763.00" xmlns="http://www.w3.org/2000/svg" xmlns:xlink="http://www.w3.org/1999/xlink">
<g id="graph0" class="graph" transform="scale(1 1) rotate(0) translate(4 759)">
<title>CFG for &#39;add&#39; function</title>
<polygon fill="white" stroke="transparent" points="-4,4 -4,-759 1229.84,-759 1229.84,4 -4,4"/>
<text text-anchor="middle" x="612.92" y="-7.8" font-family="Times,serif" font-size="14.00">CFG for &#39;add&#39; function</text>
<!-- Node0x616942fd2d80 -->
<g id="node1" class="node">
<title>Node0x616942fd2d80</title>
<polygon fill="#b70d28" fill-opacity="0.439216" stroke="#b70d28" points="35.34,-595.5 35.34,-754.5 431.34,-754.5 431.34,-595.5 35.34,-595.5"/>
<text text-anchor="start" x="43.34" y="-739.3" font-family="Courier,monospace" font-size="14.00">3:</text>
<polyline fill="none" stroke="#b70d28" points="35.34,-731.5 431.34,-731.5 "/>
<text text-anchor="start" x="43.34" y="-716.3" font-family="Courier,monospace" font-size="14.00">%4 = getelementptr inbounds i8, ptr %0, i64 12</text>
<text text-anchor="start" x="43.34" y="-701.3" font-family="Courier,monospace" font-size="14.00"> %5 = load i32, ptr %4, align 4, !tbaa !5</text>
<text text-anchor="start" x="43.34" y="-686.3" font-family="Courier,monospace" font-size="14.00"> %6 = getelementptr inbounds i8, ptr %0, i64 8</text>
<text text-anchor="start" x="43.34" y="-671.3" font-family="Courier,monospace" font-size="14.00"> %7 = load i32, ptr %6, align 8, !tbaa !11</text>
<text text-anchor="start" x="43.34" y="-656.3" font-family="Courier,monospace" font-size="14.00"> %8 = add nsw i32 %7, 1</text>
<text text-anchor="start" x="43.34" y="-641.3" font-family="Courier,monospace" font-size="14.00"> %9 = icmp sgt i32 %5, %8</text>
<text text-anchor="start" x="43.34" y="-626.3" font-family="Courier,monospace" font-size="14.00"> br i1 %9, label %20, label %10</text>
<polyline fill="none" stroke="#b70d28" points="35.34,-618.5 431.34,-618.5 "/>
<text text-anchor="middle" x="134.34" y="-603.3" font-family="Courier,monospace" font-size="14.00">T</text>
<polyline fill="none" stroke="#b70d28" points="233.34,-595.5 233.34,-618.5 "/>
<text text-anchor="middle" x="332.34" y="-603.3" font-family="Courier,monospace" font-size="14.00">F</text>
</g>
<!-- Node0x616942fd4a60 -->
<g id="node2" class="node">
<title>Node0x616942fd4a60</title>
<polygon fill="#b70d28" fill-opacity="0.439216" stroke="#b70d28" points="69.84,-23.5 69.84,-249.5 638.84,-249.5 638.84,-23.5 69.84,-23.5"/>
<text text-anchor="start" x="77.84" y="-234.3" font-family="Courier,monospace" font-size="14.00">20:</text>
<polyline fill="none" stroke="#b70d28" points="69.84,-226.5 638.84,-226.5 "/>
<text text-anchor="start" x="77.84" y="-211.3" font-family="Courier,monospace" font-size="14.00">%21 = load ptr, ptr %0, align 8, !tbaa !12</text>
<text text-anchor="start" x="77.84" y="-196.3" font-family="Courier,monospace" font-size="14.00"> %22 = load i32, ptr %6, align 8, !tbaa !11</text>
<text text-anchor="start" x="77.84" y="-181.3" font-family="Courier,monospace" font-size="14.00"> %23 = sext i32 %22 to i64</text>
<text text-anchor="start" x="77.84" y="-166.3" font-family="Courier,monospace" font-size="14.00"> %24 = getelementptr inbounds %struct.Edge, ptr %21, i64 %23</text>
<text text-anchor="start" x="77.84" y="-151.3" font-family="Courier,monospace" font-size="14.00"> store i32 %1, ptr %24, align 8, !tbaa !13</text>
<text text-anchor="start" x="77.84" y="-136.3" font-family="Courier,monospace" font-size="14.00"> %25 = load i32, ptr @ind, align 4, !tbaa !16</text>
<text text-anchor="start" x="77.84" y="-121.3" font-family="Courier,monospace" font-size="14.00"> %26 = getelementptr inbounds %struct.Edge, ptr %21, i64 %23, i32 2</text>
<text text-anchor="start" x="77.84" y="-106.3" font-family="Courier,monospace" font-size="14.00"> store i32 %25, ptr %26, align 8, !tbaa !17</text>
<text text-anchor="start" x="77.84" y="-91.3" font-family="Courier,monospace" font-size="14.00"> %27 = add nsw i32 %22, 1</text>
<text text-anchor="start" x="77.84" y="-76.3" font-family="Courier,monospace" font-size="14.00"> store i32 %27, ptr %6, align 8, !tbaa !11</text>
<text text-anchor="start" x="77.84" y="-61.3" font-family="Courier,monospace" font-size="14.00"> %28 = getelementptr inbounds %struct.Edge, ptr %21, i64 %23, i32 1</text>
<text text-anchor="start" x="77.84" y="-46.3" font-family="Courier,monospace" font-size="14.00"> store i64 %2, ptr %28, align 8, !tbaa !18</text>
<text text-anchor="start" x="77.84" y="-31.3" font-family="Courier,monospace" font-size="14.00"> ret void</text>
</g>
<!-- Node0x616942fd2d80&#45;&gt;Node0x616942fd4a60 -->
<g id="edge1" class="edge">
<title>Node0x616942fd2d80:s0&#45;&gt;Node0x616942fd4a60</title>
<g id="a_edge1"><a xlink:title="3 &#45;&gt; 20&#10;Probability 50.00%">
<path fill="none" stroke="black" d="M34.34,-607C-37.23,-607 20.4,-345.39 60.34,-286 67.32,-275.61 75.27,-265.91 83.95,-256.86"/>
<polygon fill="black" stroke="black" points="86.47,-259.29 91.07,-249.74 81.52,-254.34 86.47,-259.29"/>
</a>
</g>
</g>
<!-- Node0x616942fd4b00 -->
<g id="node3" class="node">
<title>Node0x616942fd4b00</title>
<polygon fill="#be242e" fill-opacity="0.439216" stroke="#3d50c3" points="284.84,-474.5 284.84,-558.5 565.84,-558.5 565.84,-474.5 284.84,-474.5"/>
<text text-anchor="start" x="292.84" y="-543.3" font-family="Courier,monospace" font-size="14.00">10:</text>
<polyline fill="none" stroke="#3d50c3" points="284.84,-535.5 565.84,-535.5 "/>
<text text-anchor="start" x="292.84" y="-520.3" font-family="Courier,monospace" font-size="14.00">%11 = icmp eq i32 %5, 0</text>
<text text-anchor="start" x="292.84" y="-505.3" font-family="Courier,monospace" font-size="14.00"> br i1 %11, label %12, label %14</text>
<polyline fill="none" stroke="#3d50c3" points="284.84,-497.5 565.84,-497.5 "/>
<text text-anchor="middle" x="354.84" y="-482.3" font-family="Courier,monospace" font-size="14.00">T</text>
<polyline fill="none" stroke="#3d50c3" points="424.84,-474.5 424.84,-497.5 "/>
<text text-anchor="middle" x="495.34" y="-482.3" font-family="Courier,monospace" font-size="14.00">F</text>
</g>
<!-- Node0x616942fd2d80&#45;&gt;Node0x616942fd4b00 -->
<g id="edge2" class="edge">
<title>Node0x616942fd2d80:s1&#45;&gt;Node0x616942fd4b00</title>
<g id="a_edge2"><a xlink:title="3 &#45;&gt; 10&#10;Probability 50.00%">
<path fill="none" stroke="black" d="M432.34,-607C450.5,-607 450.68,-588.45 445.48,-568.24"/>
<polygon fill="black" stroke="black" points="448.82,-567.2 442.65,-558.58 442.1,-569.16 448.82,-567.2"/>
</a>
</g>
</g>
<!-- Node0x616942fd4ce0 -->
<g id="node4" class="node">
<title>Node0x616942fd4ce0</title>
<polygon fill="#c53334" fill-opacity="0.439216" stroke="#3d50c3" points="69.84,-309 69.84,-415 638.84,-415 638.84,-309 69.84,-309"/>
<text text-anchor="start" x="77.84" y="-399.8" font-family="Courier,monospace" font-size="14.00">12:</text>
<polyline fill="none" stroke="#3d50c3" points="69.84,-392 638.84,-392 "/>
<text text-anchor="start" x="77.84" y="-376.8" font-family="Courier,monospace" font-size="14.00">%13 = tail call noalias dereferenceable_or_null(24) ptr @malloc(i64</text>
<text text-anchor="start" x="77.84" y="-361.8" font-family="Courier,monospace" font-size="14.00">... noundef 24) #10</text>
<text text-anchor="start" x="77.84" y="-346.8" font-family="Courier,monospace" font-size="14.00"> store ptr %13, ptr %0, align 8, !tbaa !12</text>
<text text-anchor="start" x="77.84" y="-331.8" font-family="Courier,monospace" font-size="14.00"> store i32 1, ptr %4, align 4, !tbaa !5</text>
<text text-anchor="start" x="77.84" y="-316.8" font-family="Courier,monospace" font-size="14.00"> br label %20</text>
</g>
<!-- Node0x616942fd4b00&#45;&gt;Node0x616942fd4ce0 -->
<g id="edge3" class="edge">
<title>Node0x616942fd4b00:s0&#45;&gt;Node0x616942fd4ce0</title>
<g id="a_edge3"><a xlink:title="10 &#45;&gt; 12&#10;Probability 37.50%">
<path fill="none" stroke="black" d="M354.34,-474C354.34,-458.27 354.34,-441.29 354.34,-425.45"/>
<polygon fill="black" stroke="black" points="357.84,-425.23 354.34,-415.23 350.84,-425.23 357.84,-425.23"/>
</a>
</g>
</g>
<!-- Node0x616942fd4d40 -->
<g id="node5" class="node">
<title>Node0x616942fd4d40</title>
<polygon fill="#c32e31" fill-opacity="0.439216" stroke="#3d50c3" points="656.84,-286.5 656.84,-437.5 1225.84,-437.5 1225.84,-286.5 656.84,-286.5"/>
<text text-anchor="start" x="664.84" y="-422.3" font-family="Courier,monospace" font-size="14.00">14:</text>
<polyline fill="none" stroke="#3d50c3" points="656.84,-414.5 1225.84,-414.5 "/>
<text text-anchor="start" x="664.84" y="-399.3" font-family="Courier,monospace" font-size="14.00">%15 = shl nsw i32 %5, 1</text>
<text text-anchor="start" x="664.84" y="-384.3" font-family="Courier,monospace" font-size="14.00"> store i32 %15, ptr %4, align 4, !tbaa !5</text>
<text text-anchor="start" x="664.84" y="-369.3" font-family="Courier,monospace" font-size="14.00"> %16 = load ptr, ptr %0, align 8, !tbaa !12</text>
<text text-anchor="start" x="664.84" y="-354.3" font-family="Courier,monospace" font-size="14.00"> %17 = sext i32 %15 to i64</text>
<text text-anchor="start" x="664.84" y="-339.3" font-family="Courier,monospace" font-size="14.00"> %18 = mul nsw i64 %17, 24</text>
<text text-anchor="start" x="664.84" y="-324.3" font-family="Courier,monospace" font-size="14.00"> %19 = tail call ptr @realloc(ptr noundef %16, i64 noundef %18) #11</text>
<text text-anchor="start" x="664.84" y="-309.3" font-family="Courier,monospace" font-size="14.00"> store ptr %19, ptr %0, align 8, !tbaa !12</text>
<text text-anchor="start" x="664.84" y="-294.3" font-family="Courier,monospace" font-size="14.00"> br label %20</text>
</g>
<!-- Node0x616942fd4b00&#45;&gt;Node0x616942fd4d40 -->
<g id="edge4" class="edge">
<title>Node0x616942fd4b00:s1&#45;&gt;Node0x616942fd4d40</title>
<g id="a_edge4"><a xlink:title="10 &#45;&gt; 14&#10;Probability 62.50%">
<path fill="none" stroke="black" d="M567.34,-485.5C638.48,-485.5 713.63,-465.23 777.75,-441.19"/>
<polygon fill="black" stroke="black" points="779.03,-444.44 787.13,-437.61 776.54,-437.9 779.03,-444.44"/>
</a>
</g>
</g>
<!-- Node0x616942fd4ce0&#45;&gt;Node0x616942fd4a60 -->
<g id="edge5" class="edge">
<title>Node0x616942fd4ce0&#45;&gt;Node0x616942fd4a60</title>
<g id="a_edge5"><a xlink:title="12 &#45;&gt; 20&#10;Probability 100.00%">
<path fill="none" stroke="black" d="M354.34,-308.88C354.34,-294 354.34,-277.13 354.34,-259.91"/>
<polygon fill="black" stroke="black" points="357.84,-259.75 354.34,-249.75 350.84,-259.75 357.84,-259.75"/>
</a>
</g>
</g>
<!-- Node0x616942fd4d40&#45;&gt;Node0x616942fd4a60 -->
<g id="edge6" class="edge">
<title>Node0x616942fd4d40&#45;&gt;Node0x616942fd4a60</title>
<g id="a_edge6"><a xlink:title="14 &#45;&gt; 20&#10;Probability 100.00%">
<path fill="none" stroke="black" d="M745.47,-286.42C714.29,-274.55 681.45,-262.05 648.6,-249.54"/>
<polygon fill="black" stroke="black" points="649.46,-246.12 638.87,-245.84 646.97,-252.67 649.46,-246.12"/>
</a>
</g>
</g>
</g>
</svg>
