<?xml version="1.0" encoding="UTF-8" standalone="no"?>
<!DOCTYPE svg PUBLIC "-//W3C//DTD SVG 1.1//EN"
 "http://www.w3.org/Graphics/SVG/1.1/DTD/svg11.dtd">
<!-- Generated by graphviz version 2.43.0 (0)
 -->
<!-- Title: CFG for &#39;push&#39; function Pages: 1 -->
<svg width="923pt" height="1094pt"
 viewBox="0.00 0.00 923.00 1094.00" xmlns="http://www.w3.org/2000/svg" xmlns:xlink="http://www.w3.org/1999/xlink">
<g id="graph0" class="graph" transform="scale(1 1) rotate(0) translate(4 1090)">
<title>CFG for &#39;push&#39; function</title>
<polygon fill="white" stroke="transparent" points="-4,4 -4,-1090 919,-1090 919,4 -4,4"/>
<text text-anchor="middle" x="457.5" y="-7.8" font-family="Times,serif" font-size="14.00">CFG for &#39;push&#39; function</text>
<!-- Node0x616943045290 -->
<g id="node1" class="node">
<title>Node0x616943045290</title>
<polygon fill="#cc403a" fill-opacity="0.439216" stroke="#3d50c3" points="337,-821.5 337,-1085.5 915,-1085.5 915,-821.5 337,-821.5"/>
<text text-anchor="start" x="345" y="-1070.3" font-family="Courier,monospace" font-size="14.00">2:</text>
<polyline fill="none" stroke="#3d50c3" points="337,-1062.5 915,-1062.5 "/>
<text text-anchor="start" x="345" y="-1047.3" font-family="Courier,monospace" font-size="14.00">%3 = getelementptr inbounds i8, ptr %0, i64 400004</text>
<text text-anchor="start" x="345" y="-1032.3" font-family="Courier,monospace" font-size="14.00"> %4 = load i32, ptr %3, align 4, !tbaa !5</text>
<text text-anchor="start" x="345" y="-1017.3" font-family="Courier,monospace" font-size="14.00"> %5 = sext i32 %1 to i64</text>
<text text-anchor="start" x="345" y="-1002.3" font-family="Courier,monospace" font-size="14.00"> %6 = getelementptr inbounds [100001 x i32], ptr @num, i64 0, i64 %5</text>
<text text-anchor="start" x="345" y="-987.3" font-family="Courier,monospace" font-size="14.00"> store i32 %4, ptr %6, align 4, !tbaa !10</text>
<text text-anchor="start" x="345" y="-972.3" font-family="Courier,monospace" font-size="14.00"> %7 = load i32, ptr %3, align 4, !tbaa !5</text>
<text text-anchor="start" x="345" y="-957.3" font-family="Courier,monospace" font-size="14.00"> %8 = add nsw i32 %7, 1</text>
<text text-anchor="start" x="345" y="-942.3" font-family="Courier,monospace" font-size="14.00"> store i32 %8, ptr %3, align 4, !tbaa !5</text>
<text text-anchor="start" x="345" y="-927.3" font-family="Courier,monospace" font-size="14.00"> %9 = sext i32 %7 to i64</text>
<text text-anchor="start" x="345" y="-912.3" font-family="Courier,monospace" font-size="14.00"> %10 = getelementptr inbounds [100001 x i32], ptr %0, i64 0, i64 %9</text>
<text text-anchor="start" x="345" y="-897.3" font-family="Courier,monospace" font-size="14.00"> store i32 %1, ptr %10, align 4, !tbaa !10</text>
<text text-anchor="start" x="345" y="-882.3" font-family="Courier,monospace" font-size="14.00"> %11 = load i32, ptr %3, align 4, !tbaa !5</text>
<text text-anchor="start" x="345" y="-867.3" font-family="Courier,monospace" font-size="14.00"> %12 = icmp sgt i32 %11, 1</text>
<text text-anchor="start" x="345" y="-852.3" font-family="Courier,monospace" font-size="14.00"> br i1 %12, label %13, label %40</text>
<polyline fill="none" stroke="#3d50c3" points="337,-844.5 915,-844.5 "/>
<text text-anchor="middle" x="481.5" y="-829.3" font-family="Courier,monospace" font-size="14.00">T</text>
<polyline fill="none" stroke="#3d50c3" points="626,-821.5 626,-844.5 "/>
<text text-anchor="middle" x="770.5" y="-829.3" font-family="Courier,monospace" font-size="14.00">F</text>
</g>
<!-- Node0x616943045a70 -->
<g id="node2" class="node">
<title>Node0x616943045a70</title>
<polygon fill="#d0473d" fill-opacity="0.439216" stroke="#3d50c3" points="347.5,-723.5 347.5,-784.5 570.5,-784.5 570.5,-723.5 347.5,-723.5"/>
<text text-anchor="start" x="355.5" y="-769.3" font-family="Courier,monospace" font-size="14.00">13:</text>
<polyline fill="none" stroke="#3d50c3" points="347.5,-761.5 570.5,-761.5 "/>
<text text-anchor="start" x="355.5" y="-746.3" font-family="Courier,monospace" font-size="14.00">%14 = add nsw i32 %11, &#45;1</text>
<text text-anchor="start" x="355.5" y="-731.3" font-family="Courier,monospace" font-size="14.00"> br label %15</text>
</g>
<!-- Node0x616943045290&#45;&gt;Node0x616943045a70 -->
<g id="edge1" class="edge">
<title>Node0x616943045290:s0&#45;&gt;Node0x616943045a70</title>
<g id="a_edge1"><a xlink:title="2 &#45;&gt; 13&#10;Probability 50.00%">
<path fill="none" stroke="black" d="M481,-821C481,-812.05 479.16,-802.75 476.54,-794.05"/>
<polygon fill="black" stroke="black" points="479.84,-792.88 473.31,-784.54 473.21,-795.14 479.84,-792.88"/>
</a>
</g>
</g>
<!-- Node0x616943045ad0 -->
<g id="node3" class="node">
<title>Node0x616943045ad0</title>
<polygon fill="#cc403a" fill-opacity="0.439216" stroke="#3d50c3" points="580.5,-23.5 580.5,-69.5 663.5,-69.5 663.5,-23.5 580.5,-23.5"/>
<text text-anchor="start" x="588.5" y="-54.3" font-family="Courier,monospace" font-size="14.00">40:</text>
<polyline fill="none" stroke="#3d50c3" points="580.5,-46.5 663.5,-46.5 "/>
<text text-anchor="start" x="588.5" y="-31.3" font-family="Courier,monospace" font-size="14.00">ret void</text>
</g>
<!-- Node0x616943045290&#45;&gt;Node0x616943045ad0 -->
<g id="edge2" class="edge">
<title>Node0x616943045290:s1&#45;&gt;Node0x616943045ad0</title>
<g id="a_edge2"><a xlink:title="2 &#45;&gt; 40&#10;Probability 50.00%">
<path fill="none" stroke="black" d="M771,-821C771,-623.63 804.37,-569.98 763,-377 738.17,-261.16 672.28,-135.36 640.14,-78.5"/>
<polygon fill="black" stroke="black" points="643.09,-76.61 635.1,-69.66 637.01,-80.08 643.09,-76.61"/>
</a>
</g>
</g>
<!-- Node0x616943045cb0 -->
<g id="node4" class="node">
<title>Node0x616943045cb0</title>
<polygon fill="#b70d28" fill-opacity="0.439216" stroke="#b70d28" points="142.5,-377.5 142.5,-686.5 753.5,-686.5 753.5,-377.5 142.5,-377.5"/>
<text text-anchor="start" x="150.5" y="-671.3" font-family="Courier,monospace" font-size="14.00">15:</text>
<polyline fill="none" stroke="#b70d28" points="142.5,-663.5 753.5,-663.5 "/>
<text text-anchor="start" x="150.5" y="-648.3" font-family="Courier,monospace" font-size="14.00">%16 = phi i32 [ %24, %32 ], [ %14, %13 ]</text>
<text text-anchor="start" x="150.5" y="-633.3" font-family="Courier,monospace" font-size="14.00"> %17 = zext nneg i32 %16 to i64</text>
<text text-anchor="start" x="150.5" y="-618.3" font-family="Courier,monospace" font-size="14.00"> %18 = getelementptr inbounds [100001 x i32], ptr %0, i64 0, i64 %17</text>
<text text-anchor="start" x="150.5" y="-603.3" font-family="Courier,monospace" font-size="14.00"> %19 = load i32, ptr %18, align 4, !tbaa !10</text>
<text text-anchor="start" x="150.5" y="-588.3" font-family="Courier,monospace" font-size="14.00"> %20 = sext i32 %19 to i64</text>
<text text-anchor="start" x="150.5" y="-573.3" font-family="Courier,monospace" font-size="14.00"> %21 = getelementptr inbounds [100001 x i64], ptr @dist1, i64 0, i64 %20</text>
<text text-anchor="start" x="150.5" y="-558.3" font-family="Courier,monospace" font-size="14.00"> %22 = load i64, ptr %21, align 8, !tbaa !11</text>
<text text-anchor="start" x="150.5" y="-543.3" font-family="Courier,monospace" font-size="14.00"> %23 = add nsw i32 %16, &#45;1</text>
<text text-anchor="start" x="150.5" y="-528.3" font-family="Courier,monospace" font-size="14.00"> %24 = lshr i32 %23, 1</text>
<text text-anchor="start" x="150.5" y="-513.3" font-family="Courier,monospace" font-size="14.00"> %25 = zext nneg i32 %24 to i64</text>
<text text-anchor="start" x="150.5" y="-498.3" font-family="Courier,monospace" font-size="14.00"> %26 = getelementptr inbounds [100001 x i32], ptr %0, i64 0, i64 %25</text>
<text text-anchor="start" x="150.5" y="-483.3" font-family="Courier,monospace" font-size="14.00"> %27 = load i32, ptr %26, align 4, !tbaa !10</text>
<text text-anchor="start" x="150.5" y="-468.3" font-family="Courier,monospace" font-size="14.00"> %28 = sext i32 %27 to i64</text>
<text text-anchor="start" x="150.5" y="-453.3" font-family="Courier,monospace" font-size="14.00"> %29 = getelementptr inbounds [100001 x i64], ptr @dist1, i64 0, i64 %28</text>
<text text-anchor="start" x="150.5" y="-438.3" font-family="Courier,monospace" font-size="14.00"> %30 = load i64, ptr %29, align 8, !tbaa !11</text>
<text text-anchor="start" x="150.5" y="-423.3" font-family="Courier,monospace" font-size="14.00"> %31 = icmp ult i64 %22, %30</text>
<text text-anchor="start" x="150.5" y="-408.3" font-family="Courier,monospace" font-size="14.00"> br i1 %31, label %32, label %40</text>
<polyline fill="none" stroke="#b70d28" points="142.5,-400.5 753.5,-400.5 "/>
<text text-anchor="middle" x="295" y="-385.3" font-family="Courier,monospace" font-size="14.00">T</text>
<polyline fill="none" stroke="#b70d28" points="447.5,-377.5 447.5,-400.5 "/>
<text text-anchor="middle" x="600.5" y="-385.3" font-family="Courier,monospace" font-size="14.00">F</text>
</g>
<!-- Node0x616943045a70&#45;&gt;Node0x616943045cb0 -->
<g id="edge3" class="edge">
<title>Node0x616943045a70&#45;&gt;Node0x616943045cb0</title>
<g id="a_edge3"><a xlink:title="13 &#45;&gt; 15&#10;Probability 100.00%">
<path fill="none" stroke="black" d="M457.52,-723.33C457.13,-715.5 456.67,-706.48 456.19,-696.71"/>
<polygon fill="black" stroke="black" points="459.68,-696.51 455.69,-686.7 452.69,-696.86 459.68,-696.51"/>
</a>
</g>
</g>
<!-- Node0x616943045cb0&#45;&gt;Node0x616943045ad0 -->
<g id="edge5" class="edge">
<title>Node0x616943045cb0:s1&#45;&gt;Node0x616943045ad0</title>
<g id="a_edge5"><a xlink:title="15 &#45;&gt; 40&#10;Probability 3.12%">
<path fill="none" stroke="black" d="M601,-377C601,-369.63 614.57,-161.24 619.89,-79.74"/>
<polygon fill="black" stroke="black" points="623.4,-79.76 620.56,-69.56 616.41,-79.31 623.4,-79.76"/>
</a>
</g>
</g>
<!-- Node0x616943045db0 -->
<g id="node5" class="node">
<title>Node0x616943045db0</title>
<polygon fill="#b70d28" fill-opacity="0.439216" stroke="#b70d28" points="0,-106.5 0,-340.5 594,-340.5 594,-106.5 0,-106.5"/>
<text text-anchor="start" x="8" y="-325.3" font-family="Courier,monospace" font-size="14.00">32:</text>
<polyline fill="none" stroke="#b70d28" points="0,-317.5 594,-317.5 "/>
<text text-anchor="start" x="8" y="-302.3" font-family="Courier,monospace" font-size="14.00">%33 = getelementptr inbounds [100001 x i32], ptr @num, i64 0, i64 %20</text>
<text text-anchor="start" x="8" y="-287.3" font-family="Courier,monospace" font-size="14.00"> store i32 %24, ptr %33, align 4, !tbaa !10</text>
<text text-anchor="start" x="8" y="-272.3" font-family="Courier,monospace" font-size="14.00"> %34 = load i32, ptr %26, align 4, !tbaa !10</text>
<text text-anchor="start" x="8" y="-257.3" font-family="Courier,monospace" font-size="14.00"> %35 = sext i32 %34 to i64</text>
<text text-anchor="start" x="8" y="-242.3" font-family="Courier,monospace" font-size="14.00"> %36 = getelementptr inbounds [100001 x i32], ptr @num, i64 0, i64 %35</text>
<text text-anchor="start" x="8" y="-227.3" font-family="Courier,monospace" font-size="14.00"> store i32 %16, ptr %36, align 4, !tbaa !10</text>
<text text-anchor="start" x="8" y="-212.3" font-family="Courier,monospace" font-size="14.00"> %37 = load i32, ptr %18, align 4, !tbaa !10</text>
<text text-anchor="start" x="8" y="-197.3" font-family="Courier,monospace" font-size="14.00"> %38 = load i32, ptr %26, align 4, !tbaa !10</text>
<text text-anchor="start" x="8" y="-182.3" font-family="Courier,monospace" font-size="14.00"> store i32 %38, ptr %18, align 4, !tbaa !10</text>
<text text-anchor="start" x="8" y="-167.3" font-family="Courier,monospace" font-size="14.00"> store i32 %37, ptr %26, align 4, !tbaa !10</text>
<text text-anchor="start" x="8" y="-152.3" font-family="Courier,monospace" font-size="14.00"> %39 = icmp ult i32 %23, 2</text>
<text text-anchor="start" x="8" y="-137.3" font-family="Courier,monospace" font-size="14.00"> br i1 %39, label %40, label %15, !llvm.loop !13</text>
<polyline fill="none" stroke="#b70d28" points="0,-129.5 594,-129.5 "/>
<text text-anchor="middle" x="148.5" y="-114.3" font-family="Courier,monospace" font-size="14.00">T</text>
<polyline fill="none" stroke="#b70d28" points="297,-106.5 297,-129.5 "/>
<text text-anchor="middle" x="445.5" y="-114.3" font-family="Courier,monospace" font-size="14.00">F</text>
</g>
<!-- Node0x616943045cb0&#45;&gt;Node0x616943045db0 -->
<g id="edge4" class="edge">
<title>Node0x616943045cb0:s0&#45;&gt;Node0x616943045db0</title>
<g id="a_edge4"><a xlink:title="15 &#45;&gt; 32&#10;Probability 96.88%">
<path fill="none" stroke="black" d="M295,-377C295,-368.44 295.03,-359.61 295.09,-350.71"/>
<polygon fill="black" stroke="black" points="298.59,-350.68 295.16,-340.65 291.59,-350.63 298.59,-350.68"/>
</a>
</g>
</g>
<!-- Node0x616943045db0&#45;&gt;Node0x616943045ad0 -->
<g id="edge6" class="edge">
<title>Node0x616943045db0:s0&#45;&gt;Node0x616943045ad0</title>
<g id="a_edge6"><a xlink:title="32 &#45;&gt; 40&#10;Probability 3.12%">
<path fill="none" stroke="black" d="M148,-106C148,-63.85 447,-51.75 570.05,-48.56"/>
<polygon fill="black" stroke="black" points="570.44,-52.05 580.35,-48.3 570.27,-45.05 570.44,-52.05"/>
</a>
</g>
</g>
<!-- Node0x616943045db0&#45;&gt;Node0x616943045cb0 -->
<g id="edge7" class="edge">
<title>Node0x616943045db0:s1&#45;&gt;Node0x616943045cb0</title>
<g id="a_edge7"><a xlink:title="32 &#45;&gt; 15&#10;Probability 96.88%">
<path fill="none" stroke="black" d="M446,-105.5C446,-89.06 582.41,-94.83 594,-106.5 612.36,-124.99 602.38,-316.33 594,-341 590.9,-350.14 587.16,-359.17 582.92,-368.06"/>
<polygon fill="black" stroke="black" points="579.66,-366.75 578.33,-377.26 585.93,-369.88 579.66,-366.75"/>
</a>
</g>
</g>
</g>
</svg>
