<?xml version="1.0" encoding="UTF-8" standalone="no"?>
<!DOCTYPE svg PUBLIC "-//W3C//DTD SVG 1.1//EN"
 "http://www.w3.org/Graphics/SVG/1.1/DTD/svg11.dtd">
<!-- Generated by graphviz version 2.43.0 (0)
 -->
<!-- Title: CFG for &#39;resize&#39; function Pages: 1 -->
<svg width="1214pt" height="417pt"
 viewBox="0.00 0.00 1214.00 417.00" xmlns="http://www.w3.org/2000/svg" xmlns:xlink="http://www.w3.org/1999/xlink">
<g id="graph0" class="graph" transform="scale(1 1) rotate(0) translate(4 413)">
<title>CFG for &#39;resize&#39; function</title>
<polygon fill="white" stroke="transparent" points="-4,4 -4,-413 1210,-413 1210,4 -4,4"/>
<text text-anchor="middle" x="603" y="-7.8" font-family="Times,serif" font-size="14.00">CFG for &#39;resize&#39; function</text>
<!-- Node0x616942fcdbb0 -->
<g id="node1" class="node">
<title>Node0x616942fcdbb0</title>
<polygon fill="#b70d28" fill-opacity="0.439216" stroke="#b70d28" points="421.5,-294.5 421.5,-408.5 817.5,-408.5 817.5,-294.5 421.5,-294.5"/>
<text text-anchor="start" x="429.5" y="-393.3" font-family="Courier,monospace" font-size="14.00">1:</text>
<polyline fill="none" stroke="#b70d28" points="421.5,-385.5 817.5,-385.5 "/>
<text text-anchor="start" x="429.5" y="-370.3" font-family="Courier,monospace" font-size="14.00">%2 = getelementptr inbounds i8, ptr %0, i64 12</text>
<text text-anchor="start" x="429.5" y="-355.3" font-family="Courier,monospace" font-size="14.00"> %3 = load i32, ptr %2, align 4, !tbaa !5</text>
<text text-anchor="start" x="429.5" y="-340.3" font-family="Courier,monospace" font-size="14.00"> %4 = icmp eq i32 %3, 0</text>
<text text-anchor="start" x="429.5" y="-325.3" font-family="Courier,monospace" font-size="14.00"> br i1 %4, label %5, label %7</text>
<polyline fill="none" stroke="#b70d28" points="421.5,-317.5 817.5,-317.5 "/>
<text text-anchor="middle" x="520.5" y="-302.3" font-family="Courier,monospace" font-size="14.00">T</text>
<polyline fill="none" stroke="#b70d28" points="619.5,-294.5 619.5,-317.5 "/>
<text text-anchor="middle" x="718.5" y="-302.3" font-family="Courier,monospace" font-size="14.00">F</text>
</g>
<!-- Node0x616942fcdd60 -->
<g id="node2" class="node">
<title>Node0x616942fcdd60</title>
<polygon fill="#c32e31" fill-opacity="0.439216" stroke="#3d50c3" points="0,-129 0,-235 627,-235 627,-129 0,-129"/>
<text text-anchor="start" x="8" y="-219.8" font-family="Courier,monospace" font-size="14.00">5:</text>
<polyline fill="none" stroke="#3d50c3" points="0,-212 627,-212 "/>
<text text-anchor="start" x="8" y="-196.8" font-family="Courier,monospace" font-size="14.00">%6 = tail call noalias dereferenceable_or_null(24) ptr @malloc(i64 noundef</text>
<text text-anchor="start" x="8" y="-181.8" font-family="Courier,monospace" font-size="14.00">... 24) #10</text>
<text text-anchor="start" x="8" y="-166.8" font-family="Courier,monospace" font-size="14.00"> store ptr %6, ptr %0, align 8, !tbaa !11</text>
<text text-anchor="start" x="8" y="-151.8" font-family="Courier,monospace" font-size="14.00"> store i32 1, ptr %2, align 4, !tbaa !5</text>
<text text-anchor="start" x="8" y="-136.8" font-family="Courier,monospace" font-size="14.00"> br label %13</text>
</g>
<!-- Node0x616942fcdbb0&#45;&gt;Node0x616942fcdd60 -->
<g id="edge1" class="edge">
<title>Node0x616942fcdbb0:s0&#45;&gt;Node0x616942fcdd60</title>
<g id="a_edge1"><a xlink:title="1 &#45;&gt; 5&#10;Probability 37.50%">
<path fill="none" stroke="black" d="M420.5,-305.5C384.39,-305.5 357.66,-274.93 339.94,-244.34"/>
<polygon fill="black" stroke="black" points="342.86,-242.37 334.96,-235.31 336.73,-245.75 342.86,-242.37"/>
</a>
</g>
</g>
<!-- Node0x616942fd2b80 -->
<g id="node3" class="node">
<title>Node0x616942fd2b80</title>
<polygon fill="#bb1b2c" fill-opacity="0.439216" stroke="#b70d28" points="645,-106.5 645,-257.5 1206,-257.5 1206,-106.5 645,-106.5"/>
<text text-anchor="start" x="653" y="-242.3" font-family="Courier,monospace" font-size="14.00">7:</text>
<polyline fill="none" stroke="#b70d28" points="645,-234.5 1206,-234.5 "/>
<text text-anchor="start" x="653" y="-219.3" font-family="Courier,monospace" font-size="14.00">%8 = shl nsw i32 %3, 1</text>
<text text-anchor="start" x="653" y="-204.3" font-family="Courier,monospace" font-size="14.00"> store i32 %8, ptr %2, align 4, !tbaa !5</text>
<text text-anchor="start" x="653" y="-189.3" font-family="Courier,monospace" font-size="14.00"> %9 = load ptr, ptr %0, align 8, !tbaa !11</text>
<text text-anchor="start" x="653" y="-174.3" font-family="Courier,monospace" font-size="14.00"> %10 = sext i32 %8 to i64</text>
<text text-anchor="start" x="653" y="-159.3" font-family="Courier,monospace" font-size="14.00"> %11 = mul nsw i64 %10, 24</text>
<text text-anchor="start" x="653" y="-144.3" font-family="Courier,monospace" font-size="14.00"> %12 = tail call ptr @realloc(ptr noundef %9, i64 noundef %11) #11</text>
<text text-anchor="start" x="653" y="-129.3" font-family="Courier,monospace" font-size="14.00"> store ptr %12, ptr %0, align 8, !tbaa !11</text>
<text text-anchor="start" x="653" y="-114.3" font-family="Courier,monospace" font-size="14.00"> br label %13</text>
</g>
<!-- Node0x616942fcdbb0&#45;&gt;Node0x616942fd2b80 -->
<g id="edge2" class="edge">
<title>Node0x616942fcdbb0:s1&#45;&gt;Node0x616942fd2b80</title>
<g id="a_edge2"><a xlink:title="1 &#45;&gt; 7&#10;Probability 62.50%">
<path fill="none" stroke="black" d="M818.5,-305.5C845.91,-305.5 867.92,-287.88 884.68,-266.01"/>
<polygon fill="black" stroke="black" points="887.61,-267.94 890.62,-257.79 881.93,-263.85 887.61,-267.94"/>
</a>
</g>
</g>
<!-- Node0x616942fd3760 -->
<g id="node4" class="node">
<title>Node0x616942fd3760</title>
<polygon fill="#b70d28" fill-opacity="0.439216" stroke="#b70d28" points="578,-23.5 578,-69.5 661,-69.5 661,-23.5 578,-23.5"/>
<text text-anchor="start" x="586" y="-54.3" font-family="Courier,monospace" font-size="14.00">13:</text>
<polyline fill="none" stroke="#b70d28" points="578,-46.5 661,-46.5 "/>
<text text-anchor="start" x="586" y="-31.3" font-family="Courier,monospace" font-size="14.00">ret void</text>
</g>
<!-- Node0x616942fcdd60&#45;&gt;Node0x616942fd3760 -->
<g id="edge3" class="edge">
<title>Node0x616942fcdd60&#45;&gt;Node0x616942fd3760</title>
<g id="a_edge3"><a xlink:title="5 &#45;&gt; 13&#10;Probability 100.00%">
<path fill="none" stroke="black" d="M433.12,-128.81C480.05,-108.34 531.39,-85.94 568.28,-69.85"/>
<polygon fill="black" stroke="black" points="570.04,-72.9 577.81,-65.69 567.24,-66.48 570.04,-72.9"/>
</a>
</g>
</g>
<!-- Node0x616942fd2b80&#45;&gt;Node0x616942fd3760 -->
<g id="edge4" class="edge">
<title>Node0x616942fd2b80&#45;&gt;Node0x616942fd3760</title>
<g id="a_edge4"><a xlink:title="7 &#45;&gt; 13&#10;Probability 100.00%">
<path fill="none" stroke="black" d="M754.61,-106.44C723.92,-93.06 694.22,-80.1 670.51,-69.75"/>
<polygon fill="black" stroke="black" points="671.63,-66.42 661.06,-65.63 668.83,-72.84 671.63,-66.42"/>
</a>
</g>
</g>
</g>
</svg>
