<?xml version="1.0" encoding="UTF-8" standalone="no"?>
<!DOCTYPE svg PUBLIC "-//W3C//DTD SVG 1.1//EN"
 "http://www.w3.org/Graphics/SVG/1.1/DTD/svg11.dtd">
<!-- Generated by graphviz version 2.43.0 (0)
 -->
<!-- Title: CFG for &#39;add&#39; function Pages: 1 -->
<svg width="1365pt" height="793pt"
 viewBox="0.00 0.00 1364.50 793.00" xmlns="http://www.w3.org/2000/svg" xmlns:xlink="http://www.w3.org/1999/xlink">
<g id="graph0" class="graph" transform="scale(1 1) rotate(0) translate(4 789)">
<title>CFG for &#39;add&#39; function</title>
<polygon fill="white" stroke="transparent" points="-4,4 -4,-789 1360.5,-789 1360.5,4 -4,4"/>
<text text-anchor="middle" x="678.25" y="-7.8" font-family="Times,serif" font-size="14.00">CFG for &#39;add&#39; function</text>
<!-- Node0x56e38e2b1cd0 -->
<g id="node1" class="node">
<title>Node0x56e38e2b1cd0</title>
<polygon fill="#b70d28" fill-opacity="0.439216" stroke="#b70d28" points="166,-625.5 166,-784.5 562,-784.5 562,-625.5 166,-625.5"/>
<text text-anchor="start" x="174" y="-769.3" font-family="Courier,monospace" font-size="14.00">3:</text>
<polyline fill="none" stroke="#b70d28" points="166,-761.5 562,-761.5 "/>
<text text-anchor="start" x="174" y="-746.3" font-family="Courier,monospace" font-size="14.00">%4 = getelementptr inbounds i8, ptr %0, i64 12</text>
<text text-anchor="start" x="174" y="-731.3" font-family="Courier,monospace" font-size="14.00"> %5 = load i32, ptr %4, align 4, !tbaa !5</text>
<text text-anchor="start" x="174" y="-716.3" font-family="Courier,monospace" font-size="14.00"> %6 = getelementptr inbounds i8, ptr %0, i64 8</text>
<text text-anchor="start" x="174" y="-701.3" font-family="Courier,monospace" font-size="14.00"> %7 = load i32, ptr %6, align 8, !tbaa !11</text>
<text text-anchor="start" x="174" y="-686.3" font-family="Courier,monospace" font-size="14.00"> %8 = add nsw i32 %7, 1</text>
<text text-anchor="start" x="174" y="-671.3" font-family="Courier,monospace" font-size="14.00"> %9 = icmp sgt i32 %5, %8</text>
<text text-anchor="start" x="174" y="-656.3" font-family="Courier,monospace" font-size="14.00"> br i1 %9, label %._crit_edge, label %10</text>
<polyline fill="none" stroke="#b70d28" points="166,-648.5 562,-648.5 "/>
<text text-anchor="middle" x="265" y="-633.3" font-family="Courier,monospace" font-size="14.00">T</text>
<polyline fill="none" stroke="#b70d28" points="364,-625.5 364,-648.5 "/>
<text text-anchor="middle" x="463" y="-633.3" font-family="Courier,monospace" font-size="14.00">F</text>
</g>
<!-- Node0x56e38e2b34c0 -->
<g id="node2" class="node">
<title>Node0x56e38e2b34c0</title>
<polygon fill="#be242e" fill-opacity="0.439216" stroke="#3d50c3" points="0,-516 0,-577 380,-577 380,-516 0,-516"/>
<text text-anchor="start" x="8" y="-561.8" font-family="Courier,monospace" font-size="14.00">._crit_edge:</text>
<polyline fill="none" stroke="#3d50c3" points="0,-554 380,-554 "/>
<text text-anchor="start" x="8" y="-538.8" font-family="Courier,monospace" font-size="14.00">%.pre = load ptr, ptr %0, align 8, !tbaa !12</text>
<text text-anchor="start" x="8" y="-523.8" font-family="Courier,monospace" font-size="14.00"> br label %20</text>
</g>
<!-- Node0x56e38e2b1cd0&#45;&gt;Node0x56e38e2b34c0 -->
<g id="edge1" class="edge">
<title>Node0x56e38e2b1cd0:s0&#45;&gt;Node0x56e38e2b34c0</title>
<g id="a_edge1"><a xlink:title="3 &#45;&gt; ._crit_edge&#10;Probability 50.00%">
<path fill="none" stroke="black" d="M165,-637C142.44,-637 151.98,-610.3 165.29,-586.06"/>
<polygon fill="black" stroke="black" points="168.38,-587.72 170.31,-577.3 162.3,-584.24 168.38,-587.72"/>
</a>
</g>
</g>
<!-- Node0x56e38e2b3690 -->
<g id="node3" class="node">
<title>Node0x56e38e2b3690</title>
<polygon fill="#be242e" fill-opacity="0.439216" stroke="#3d50c3" points="415.5,-504.5 415.5,-588.5 696.5,-588.5 696.5,-504.5 415.5,-504.5"/>
<text text-anchor="start" x="423.5" y="-573.3" font-family="Courier,monospace" font-size="14.00">10:</text>
<polyline fill="none" stroke="#3d50c3" points="415.5,-565.5 696.5,-565.5 "/>
<text text-anchor="start" x="423.5" y="-550.3" font-family="Courier,monospace" font-size="14.00">%11 = icmp eq i32 %5, 0</text>
<text text-anchor="start" x="423.5" y="-535.3" font-family="Courier,monospace" font-size="14.00"> br i1 %11, label %12, label %14</text>
<polyline fill="none" stroke="#3d50c3" points="415.5,-527.5 696.5,-527.5 "/>
<text text-anchor="middle" x="485.5" y="-512.3" font-family="Courier,monospace" font-size="14.00">T</text>
<polyline fill="none" stroke="#3d50c3" points="555.5,-504.5 555.5,-527.5 "/>
<text text-anchor="middle" x="626" y="-512.3" font-family="Courier,monospace" font-size="14.00">F</text>
</g>
<!-- Node0x56e38e2b1cd0&#45;&gt;Node0x56e38e2b3690 -->
<g id="edge2" class="edge">
<title>Node0x56e38e2b1cd0:s1&#45;&gt;Node0x56e38e2b3690</title>
<g id="a_edge2"><a xlink:title="3 &#45;&gt; 10&#10;Probability 50.00%">
<path fill="none" stroke="black" d="M563,-637C581.16,-637 581.34,-618.45 576.14,-598.24"/>
<polygon fill="black" stroke="black" points="579.48,-597.2 573.31,-588.58 572.76,-599.16 579.48,-597.2"/>
</a>
</g>
</g>
<!-- Node0x56e38e2b3630 -->
<g id="node4" class="node">
<title>Node0x56e38e2b3630</title>
<polygon fill="#b70d28" fill-opacity="0.439216" stroke="#b70d28" points="188,-23.5 188,-249.5 782,-249.5 782,-23.5 188,-23.5"/>
<text text-anchor="start" x="196" y="-234.3" font-family="Courier,monospace" font-size="14.00">20:</text>
<polyline fill="none" stroke="#b70d28" points="188,-226.5 782,-226.5 "/>
<text text-anchor="start" x="196" y="-211.3" font-family="Courier,monospace" font-size="14.00">%.pre&#45;phi = phi i32 [ %8, %._crit_edge ], [ %.pre2, %14 ], [ %8, %12 ]</text>
<text text-anchor="start" x="196" y="-196.3" font-family="Courier,monospace" font-size="14.00"> %21 = phi i32 [ %7, %._crit_edge ], [ %.pre1, %14 ], [ %7, %12 ]</text>
<text text-anchor="start" x="196" y="-181.3" font-family="Courier,monospace" font-size="14.00"> %22 = phi ptr [ %.pre, %._crit_edge ], [ %19, %14 ], [ %13, %12 ]</text>
<text text-anchor="start" x="196" y="-166.3" font-family="Courier,monospace" font-size="14.00"> %23 = sext i32 %21 to i64</text>
<text text-anchor="start" x="196" y="-151.3" font-family="Courier,monospace" font-size="14.00"> %24 = getelementptr inbounds %struct.Edge, ptr %22, i64 %23</text>
<text text-anchor="start" x="196" y="-136.3" font-family="Courier,monospace" font-size="14.00"> store i32 %1, ptr %24, align 8, !tbaa !13</text>
<text text-anchor="start" x="196" y="-121.3" font-family="Courier,monospace" font-size="14.00"> %25 = load i32, ptr @ind, align 4, !tbaa !16</text>
<text text-anchor="start" x="196" y="-106.3" font-family="Courier,monospace" font-size="14.00"> %26 = getelementptr inbounds %struct.Edge, ptr %22, i64 %23, i32 2</text>
<text text-anchor="start" x="196" y="-91.3" font-family="Courier,monospace" font-size="14.00"> store i32 %25, ptr %26, align 8, !tbaa !17</text>
<text text-anchor="start" x="196" y="-76.3" font-family="Courier,monospace" font-size="14.00"> store i32 %.pre&#45;phi, ptr %6, align 8, !tbaa !11</text>
<text text-anchor="start" x="196" y="-61.3" font-family="Courier,monospace" font-size="14.00"> %27 = getelementptr inbounds %struct.Edge, ptr %22, i64 %23, i32 1</text>
<text text-anchor="start" x="196" y="-46.3" font-family="Courier,monospace" font-size="14.00"> store i64 %2, ptr %27, align 8, !tbaa !18</text>
<text text-anchor="start" x="196" y="-31.3" font-family="Courier,monospace" font-size="14.00"> ret void</text>
</g>
<!-- Node0x56e38e2b34c0&#45;&gt;Node0x56e38e2b3630 -->
<g id="edge3" class="edge">
<title>Node0x56e38e2b34c0&#45;&gt;Node0x56e38e2b3630</title>
<g id="a_edge3"><a xlink:title="._crit_edge &#45;&gt; 20&#10;Probability 100.00%">
<path fill="none" stroke="black" d="M180.86,-515.96C166.92,-464.79 146.36,-358.25 191,-286 197.4,-275.64 204.77,-265.98 212.9,-256.97"/>
<polygon fill="black" stroke="black" points="215.58,-259.23 219.9,-249.56 210.49,-254.42 215.58,-259.23"/>
</a>
</g>
</g>
<!-- Node0x56e38e2b3fb0 -->
<g id="node5" class="node">
<title>Node0x56e38e2b3fb0</title>
<polygon fill="#c53334" fill-opacity="0.439216" stroke="#3d50c3" points="200.5,-324 200.5,-430 769.5,-430 769.5,-324 200.5,-324"/>
<text text-anchor="start" x="208.5" y="-414.8" font-family="Courier,monospace" font-size="14.00">12:</text>
<polyline fill="none" stroke="#3d50c3" points="200.5,-407 769.5,-407 "/>
<text text-anchor="start" x="208.5" y="-391.8" font-family="Courier,monospace" font-size="14.00">%13 = tail call noalias dereferenceable_or_null(24) ptr @malloc(i64</text>
<text text-anchor="start" x="208.5" y="-376.8" font-family="Courier,monospace" font-size="14.00">... noundef 24) #9</text>
<text text-anchor="start" x="208.5" y="-361.8" font-family="Courier,monospace" font-size="14.00"> store ptr %13, ptr %0, align 8, !tbaa !12</text>
<text text-anchor="start" x="208.5" y="-346.8" font-family="Courier,monospace" font-size="14.00"> store i32 1, ptr %4, align 4, !tbaa !5</text>
<text text-anchor="start" x="208.5" y="-331.8" font-family="Courier,monospace" font-size="14.00"> br label %20</text>
</g>
<!-- Node0x56e38e2b3690&#45;&gt;Node0x56e38e2b3fb0 -->
<g id="edge4" class="edge">
<title>Node0x56e38e2b3690:s0&#45;&gt;Node0x56e38e2b3fb0</title>
<g id="a_edge4"><a xlink:title="10 &#45;&gt; 12&#10;Probability 37.50%">
<path fill="none" stroke="black" d="M485,-504C485,-483.23 485,-460.53 485,-440.19"/>
<polygon fill="black" stroke="black" points="488.5,-440.11 485,-430.11 481.5,-440.11 488.5,-440.11"/>
</a>
</g>
</g>
<!-- Node0x56e38e2b4010 -->
<g id="node6" class="node">
<title>Node0x56e38e2b4010</title>
<polygon fill="#c32e31" fill-opacity="0.439216" stroke="#3d50c3" points="787.5,-286.5 787.5,-467.5 1356.5,-467.5 1356.5,-286.5 787.5,-286.5"/>
<text text-anchor="start" x="795.5" y="-452.3" font-family="Courier,monospace" font-size="14.00">14:</text>
<polyline fill="none" stroke="#3d50c3" points="787.5,-444.5 1356.5,-444.5 "/>
<text text-anchor="start" x="795.5" y="-429.3" font-family="Courier,monospace" font-size="14.00">%15 = shl nsw i32 %5, 1</text>
<text text-anchor="start" x="795.5" y="-414.3" font-family="Courier,monospace" font-size="14.00"> store i32 %15, ptr %4, align 4, !tbaa !5</text>
<text text-anchor="start" x="795.5" y="-399.3" font-family="Courier,monospace" font-size="14.00"> %16 = load ptr, ptr %0, align 8, !tbaa !12</text>
<text text-anchor="start" x="795.5" y="-384.3" font-family="Courier,monospace" font-size="14.00"> %17 = sext i32 %15 to i64</text>
<text text-anchor="start" x="795.5" y="-369.3" font-family="Courier,monospace" font-size="14.00"> %18 = mul nsw i64 %17, 24</text>
<text text-anchor="start" x="795.5" y="-354.3" font-family="Courier,monospace" font-size="14.00"> %19 = tail call ptr @realloc(ptr noundef %16, i64 noundef %18) #10</text>
<text text-anchor="start" x="795.5" y="-339.3" font-family="Courier,monospace" font-size="14.00"> store ptr %19, ptr %0, align 8, !tbaa !12</text>
<text text-anchor="start" x="795.5" y="-324.3" font-family="Courier,monospace" font-size="14.00"> %.pre1 = load i32, ptr %6, align 8, !tbaa !11</text>
<text text-anchor="start" x="795.5" y="-309.3" font-family="Courier,monospace" font-size="14.00"> %.pre2 = add nsw i32 %.pre1, 1</text>
<text text-anchor="start" x="795.5" y="-294.3" font-family="Courier,monospace" font-size="14.00"> br label %20</text>
</g>
<!-- Node0x56e38e2b3690&#45;&gt;Node0x56e38e2b4010 -->
<g id="edge5" class="edge">
<title>Node0x56e38e2b3690:s1&#45;&gt;Node0x56e38e2b4010</title>
<g id="a_edge5"><a xlink:title="10 &#45;&gt; 14&#10;Probability 62.50%">
<path fill="none" stroke="black" d="M698,-515.5C764.95,-515.5 834.74,-495.85 895.64,-471.4"/>
<polygon fill="black" stroke="black" points="897.01,-474.62 904.95,-467.6 894.37,-468.14 897.01,-474.62"/>
</a>
</g>
</g>
<!-- Node0x56e38e2b3fb0&#45;&gt;Node0x56e38e2b3630 -->
<g id="edge6" class="edge">
<title>Node0x56e38e2b3fb0&#45;&gt;Node0x56e38e2b3630</title>
<g id="a_edge6"><a xlink:title="12 &#45;&gt; 20&#10;Probability 100.00%">
<path fill="none" stroke="black" d="M485,-323.95C485,-304.85 485,-282.33 485,-259.67"/>
<polygon fill="black" stroke="black" points="488.5,-259.61 485,-249.61 481.5,-259.61 488.5,-259.61"/>
</a>
</g>
</g>
<!-- Node0x56e38e2b4010&#45;&gt;Node0x56e38e2b3630 -->
<g id="edge7" class="edge">
<title>Node0x56e38e2b4010&#45;&gt;Node0x56e38e2b3630</title>
<g id="a_edge7"><a xlink:title="14 &#45;&gt; 20&#10;Probability 100.00%">
<path fill="none" stroke="black" d="M851.33,-286.34C824.75,-275.54 797.32,-264.39 769.98,-253.29"/>
<polygon fill="black" stroke="black" points="771.3,-250.05 760.71,-249.52 768.66,-256.53 771.3,-250.05"/>
</a>
</g>
</g>
</g>
</svg>
