<?xml version="1.0" encoding="UTF-8" standalone="no"?>
<!DOCTYPE svg PUBLIC "-//W3C//DTD SVG 1.1//EN"
 "http://www.w3.org/Graphics/SVG/1.1/DTD/svg11.dtd">
<!-- Generated by graphviz version 2.43.0 (0)
 -->
<!-- Title: CFG for &#39;push&#39; function Pages: 1 -->
<svg width="912pt" height="1139pt"
 viewBox="0.00 0.00 912.00 1139.00" xmlns="http://www.w3.org/2000/svg" xmlns:xlink="http://www.w3.org/1999/xlink">
<g id="graph0" class="graph" transform="scale(1 1) rotate(0) translate(4 1135)">
<title>CFG for &#39;push&#39; function</title>
<polygon fill="white" stroke="transparent" points="-4,4 -4,-1135 908,-1135 908,4 -4,4"/>
<text text-anchor="middle" x="452" y="-7.8" font-family="Times,serif" font-size="14.00">CFG for &#39;push&#39; function</text>
<!-- Node0x56e38e3269d0 -->
<g id="node1" class="node">
<title>Node0x56e38e3269d0</title>
<polygon fill="#cc403a" fill-opacity="0.439216" stroke="#3d50c3" points="326,-881.5 326,-1130.5 904,-1130.5 904,-881.5 326,-881.5"/>
<text text-anchor="start" x="334" y="-1115.3" font-family="Courier,monospace" font-size="14.00">2:</text>
<polyline fill="none" stroke="#3d50c3" points="326,-1107.5 904,-1107.5 "/>
<text text-anchor="start" x="334" y="-1092.3" font-family="Courier,monospace" font-size="14.00">%3 = getelementptr inbounds i8, ptr %0, i64 400004</text>
<text text-anchor="start" x="334" y="-1077.3" font-family="Courier,monospace" font-size="14.00"> %4 = load i32, ptr %3, align 4, !tbaa !5</text>
<text text-anchor="start" x="334" y="-1062.3" font-family="Courier,monospace" font-size="14.00"> %5 = sext i32 %1 to i64</text>
<text text-anchor="start" x="334" y="-1047.3" font-family="Courier,monospace" font-size="14.00"> %6 = getelementptr inbounds [100001 x i32], ptr @num, i64 0, i64 %5</text>
<text text-anchor="start" x="334" y="-1032.3" font-family="Courier,monospace" font-size="14.00"> store i32 %4, ptr %6, align 4, !tbaa !10</text>
<text text-anchor="start" x="334" y="-1017.3" font-family="Courier,monospace" font-size="14.00"> %7 = add nsw i32 %4, 1</text>
<text text-anchor="start" x="334" y="-1002.3" font-family="Courier,monospace" font-size="14.00"> store i32 %7, ptr %3, align 4, !tbaa !5</text>
<text text-anchor="start" x="334" y="-987.3" font-family="Courier,monospace" font-size="14.00"> %8 = sext i32 %4 to i64</text>
<text text-anchor="start" x="334" y="-972.3" font-family="Courier,monospace" font-size="14.00"> %9 = getelementptr inbounds [100001 x i32], ptr %0, i64 0, i64 %8</text>
<text text-anchor="start" x="334" y="-957.3" font-family="Courier,monospace" font-size="14.00"> store i32 %1, ptr %9, align 4, !tbaa !10</text>
<text text-anchor="start" x="334" y="-942.3" font-family="Courier,monospace" font-size="14.00"> %10 = load i32, ptr %3, align 4, !tbaa !5</text>
<text text-anchor="start" x="334" y="-927.3" font-family="Courier,monospace" font-size="14.00"> %11 = icmp sgt i32 %10, 1</text>
<text text-anchor="start" x="334" y="-912.3" font-family="Courier,monospace" font-size="14.00"> br i1 %11, label %12, label %.loopexit</text>
<polyline fill="none" stroke="#3d50c3" points="326,-904.5 904,-904.5 "/>
<text text-anchor="middle" x="470.5" y="-889.3" font-family="Courier,monospace" font-size="14.00">T</text>
<polyline fill="none" stroke="#3d50c3" points="615,-881.5 615,-904.5 "/>
<text text-anchor="middle" x="759.5" y="-889.3" font-family="Courier,monospace" font-size="14.00">F</text>
</g>
<!-- Node0x56e38e327020 -->
<g id="node2" class="node">
<title>Node0x56e38e327020</title>
<polygon fill="#d0473d" fill-opacity="0.439216" stroke="#3d50c3" points="118,-723.5 118,-844.5 762,-844.5 762,-723.5 118,-723.5"/>
<text text-anchor="start" x="126" y="-829.3" font-family="Courier,monospace" font-size="14.00">12:</text>
<polyline fill="none" stroke="#3d50c3" points="118,-821.5 762,-821.5 "/>
<text text-anchor="start" x="126" y="-806.3" font-family="Courier,monospace" font-size="14.00">%13 = add nsw i32 %10, &#45;1</text>
<text text-anchor="start" x="126" y="-791.3" font-family="Courier,monospace" font-size="14.00"> %.phi.trans.insert = zext nneg i32 %13 to i64</text>
<text text-anchor="start" x="126" y="-776.3" font-family="Courier,monospace" font-size="14.00"> %.phi.trans.insert1 = getelementptr inbounds [100001 x i32], ptr %0, i64 0,</text>
<text text-anchor="start" x="126" y="-761.3" font-family="Courier,monospace" font-size="14.00">... i64 %.phi.trans.insert</text>
<text text-anchor="start" x="126" y="-746.3" font-family="Courier,monospace" font-size="14.00"> %.pre = load i32, ptr %.phi.trans.insert1, align 4, !tbaa !10</text>
<text text-anchor="start" x="126" y="-731.3" font-family="Courier,monospace" font-size="14.00"> br label %14</text>
</g>
<!-- Node0x56e38e3269d0&#45;&gt;Node0x56e38e327020 -->
<g id="edge1" class="edge">
<title>Node0x56e38e3269d0:s0&#45;&gt;Node0x56e38e327020</title>
<g id="a_edge1"><a xlink:title="2 &#45;&gt; 12&#10;Probability 50.00%">
<path fill="none" stroke="black" d="M470,-881C470,-872.25 468.85,-863.24 467,-854.41"/>
<polygon fill="black" stroke="black" points="470.37,-853.46 464.64,-844.55 463.56,-855.09 470.37,-853.46"/>
</a>
</g>
</g>
<!-- Node0x56e38e327e50 -->
<g id="node3" class="node">
<title>Node0x56e38e327e50</title>
<polygon fill="#cc403a" fill-opacity="0.439216" stroke="#3d50c3" points="572.5,-23.5 572.5,-69.5 671.5,-69.5 671.5,-23.5 572.5,-23.5"/>
<text text-anchor="start" x="580.5" y="-54.3" font-family="Courier,monospace" font-size="14.00">.loopexit:</text>
<polyline fill="none" stroke="#3d50c3" points="572.5,-46.5 671.5,-46.5 "/>
<text text-anchor="start" x="580.5" y="-31.3" font-family="Courier,monospace" font-size="14.00">ret void</text>
</g>
<!-- Node0x56e38e3269d0&#45;&gt;Node0x56e38e327e50 -->
<g id="edge2" class="edge">
<title>Node0x56e38e3269d0:s1&#45;&gt;Node0x56e38e327e50</title>
<g id="a_edge2"><a xlink:title="2 &#45;&gt; .loopexit&#10;Probability 50.00%">
<path fill="none" stroke="black" d="M760,-881C760,-864.27 768.53,-861.55 771,-845 779.01,-791.37 771.77,-777.22 771,-723 769,-582.51 789.9,-544.7 762,-407 736.31,-280.2 669.68,-140.07 638.52,-78.92"/>
<polygon fill="black" stroke="black" points="641.52,-77.1 633.83,-69.8 635.29,-80.3 641.52,-77.1"/>
</a>
</g>
</g>
<!-- Node0x56e38e328400 -->
<g id="node4" class="node">
<title>Node0x56e38e328400</title>
<polygon fill="#b70d28" fill-opacity="0.439216" stroke="#b70d28" points="142.5,-407.5 142.5,-686.5 753.5,-686.5 753.5,-407.5 142.5,-407.5"/>
<text text-anchor="start" x="150.5" y="-671.3" font-family="Courier,monospace" font-size="14.00">14:</text>
<polyline fill="none" stroke="#b70d28" points="142.5,-663.5 753.5,-663.5 "/>
<text text-anchor="start" x="150.5" y="-648.3" font-family="Courier,monospace" font-size="14.00">%15 = phi i32 [ %36, %29 ], [ %.pre, %12 ]</text>
<text text-anchor="start" x="150.5" y="-633.3" font-family="Courier,monospace" font-size="14.00"> %16 = phi i32 [ %21, %29 ], [ %13, %12 ]</text>
<text text-anchor="start" x="150.5" y="-618.3" font-family="Courier,monospace" font-size="14.00"> %17 = sext i32 %15 to i64</text>
<text text-anchor="start" x="150.5" y="-603.3" font-family="Courier,monospace" font-size="14.00"> %18 = getelementptr inbounds [100001 x i64], ptr @dist1, i64 0, i64 %17</text>
<text text-anchor="start" x="150.5" y="-588.3" font-family="Courier,monospace" font-size="14.00"> %19 = load i64, ptr %18, align 8, !tbaa !11</text>
<text text-anchor="start" x="150.5" y="-573.3" font-family="Courier,monospace" font-size="14.00"> %20 = add nsw i32 %16, &#45;1</text>
<text text-anchor="start" x="150.5" y="-558.3" font-family="Courier,monospace" font-size="14.00"> %21 = lshr i32 %20, 1</text>
<text text-anchor="start" x="150.5" y="-543.3" font-family="Courier,monospace" font-size="14.00"> %22 = zext nneg i32 %21 to i64</text>
<text text-anchor="start" x="150.5" y="-528.3" font-family="Courier,monospace" font-size="14.00"> %23 = getelementptr inbounds [100001 x i32], ptr %0, i64 0, i64 %22</text>
<text text-anchor="start" x="150.5" y="-513.3" font-family="Courier,monospace" font-size="14.00"> %24 = load i32, ptr %23, align 4, !tbaa !10</text>
<text text-anchor="start" x="150.5" y="-498.3" font-family="Courier,monospace" font-size="14.00"> %25 = sext i32 %24 to i64</text>
<text text-anchor="start" x="150.5" y="-483.3" font-family="Courier,monospace" font-size="14.00"> %26 = getelementptr inbounds [100001 x i64], ptr @dist1, i64 0, i64 %25</text>
<text text-anchor="start" x="150.5" y="-468.3" font-family="Courier,monospace" font-size="14.00"> %27 = load i64, ptr %26, align 8, !tbaa !11</text>
<text text-anchor="start" x="150.5" y="-453.3" font-family="Courier,monospace" font-size="14.00"> %28 = icmp ult i64 %19, %27</text>
<text text-anchor="start" x="150.5" y="-438.3" font-family="Courier,monospace" font-size="14.00"> br i1 %28, label %29, label %.loopexit</text>
<polyline fill="none" stroke="#b70d28" points="142.5,-430.5 753.5,-430.5 "/>
<text text-anchor="middle" x="295" y="-415.3" font-family="Courier,monospace" font-size="14.00">T</text>
<polyline fill="none" stroke="#b70d28" points="447.5,-407.5 447.5,-430.5 "/>
<text text-anchor="middle" x="600.5" y="-415.3" font-family="Courier,monospace" font-size="14.00">F</text>
</g>
<!-- Node0x56e38e327020&#45;&gt;Node0x56e38e328400 -->
<g id="edge3" class="edge">
<title>Node0x56e38e327020&#45;&gt;Node0x56e38e328400</title>
<g id="a_edge3"><a xlink:title="12 &#45;&gt; 14&#10;Probability 100.00%">
<path fill="none" stroke="black" d="M442.03,-723.4C442.31,-715.01 442.62,-706.09 442.93,-696.9"/>
<polygon fill="black" stroke="black" points="446.43,-696.95 443.27,-686.84 439.44,-696.71 446.43,-696.95"/>
</a>
</g>
</g>
<!-- Node0x56e38e328400&#45;&gt;Node0x56e38e327e50 -->
<g id="edge5" class="edge">
<title>Node0x56e38e328400:s1&#45;&gt;Node0x56e38e327e50</title>
<g id="a_edge5"><a xlink:title="14 &#45;&gt; .loopexit&#10;Probability 3.12%">
<path fill="none" stroke="black" d="M601,-407C601,-404.96 614.94,-167.66 620.1,-79.76"/>
<polygon fill="black" stroke="black" points="623.61,-79.76 620.7,-69.57 616.62,-79.35 623.61,-79.76"/>
</a>
</g>
</g>
<!-- Node0x56e38e3284d0 -->
<g id="node5" class="node">
<title>Node0x56e38e3284d0</title>
<polygon fill="#b70d28" fill-opacity="0.439216" stroke="#b70d28" points="0,-106.5 0,-370.5 594,-370.5 594,-106.5 0,-106.5"/>
<text text-anchor="start" x="8" y="-355.3" font-family="Courier,monospace" font-size="14.00">29:</text>
<polyline fill="none" stroke="#b70d28" points="0,-347.5 594,-347.5 "/>
<text text-anchor="start" x="8" y="-332.3" font-family="Courier,monospace" font-size="14.00">%30 = zext nneg i32 %16 to i64</text>
<text text-anchor="start" x="8" y="-317.3" font-family="Courier,monospace" font-size="14.00"> %31 = getelementptr inbounds [100001 x i32], ptr %0, i64 0, i64 %30</text>
<text text-anchor="start" x="8" y="-302.3" font-family="Courier,monospace" font-size="14.00"> %32 = getelementptr inbounds [100001 x i32], ptr @num, i64 0, i64 %17</text>
<text text-anchor="start" x="8" y="-287.3" font-family="Courier,monospace" font-size="14.00"> store i32 %21, ptr %32, align 4, !tbaa !10</text>
<text text-anchor="start" x="8" y="-272.3" font-family="Courier,monospace" font-size="14.00"> %33 = load i32, ptr %23, align 4, !tbaa !10</text>
<text text-anchor="start" x="8" y="-257.3" font-family="Courier,monospace" font-size="14.00"> %34 = sext i32 %33 to i64</text>
<text text-anchor="start" x="8" y="-242.3" font-family="Courier,monospace" font-size="14.00"> %35 = getelementptr inbounds [100001 x i32], ptr @num, i64 0, i64 %34</text>
<text text-anchor="start" x="8" y="-227.3" font-family="Courier,monospace" font-size="14.00"> store i32 %16, ptr %35, align 4, !tbaa !10</text>
<text text-anchor="start" x="8" y="-212.3" font-family="Courier,monospace" font-size="14.00"> %36 = load i32, ptr %31, align 4, !tbaa !10</text>
<text text-anchor="start" x="8" y="-197.3" font-family="Courier,monospace" font-size="14.00"> %37 = load i32, ptr %23, align 4, !tbaa !10</text>
<text text-anchor="start" x="8" y="-182.3" font-family="Courier,monospace" font-size="14.00"> store i32 %37, ptr %31, align 4, !tbaa !10</text>
<text text-anchor="start" x="8" y="-167.3" font-family="Courier,monospace" font-size="14.00"> store i32 %36, ptr %23, align 4, !tbaa !10</text>
<text text-anchor="start" x="8" y="-152.3" font-family="Courier,monospace" font-size="14.00"> %38 = icmp ult i32 %20, 2</text>
<text text-anchor="start" x="8" y="-137.3" font-family="Courier,monospace" font-size="14.00"> br i1 %38, label %.loopexit, label %14, !llvm.loop !13</text>
<polyline fill="none" stroke="#b70d28" points="0,-129.5 594,-129.5 "/>
<text text-anchor="middle" x="148.5" y="-114.3" font-family="Courier,monospace" font-size="14.00">T</text>
<polyline fill="none" stroke="#b70d28" points="297,-106.5 297,-129.5 "/>
<text text-anchor="middle" x="445.5" y="-114.3" font-family="Courier,monospace" font-size="14.00">F</text>
</g>
<!-- Node0x56e38e328400&#45;&gt;Node0x56e38e3284d0 -->
<g id="edge4" class="edge">
<title>Node0x56e38e328400:s0&#45;&gt;Node0x56e38e3284d0</title>
<g id="a_edge4"><a xlink:title="14 &#45;&gt; 29&#10;Probability 96.88%">
<path fill="none" stroke="black" d="M295,-407C295,-398.44 295.03,-389.64 295.07,-380.76"/>
<polygon fill="black" stroke="black" points="298.57,-380.73 295.13,-370.71 291.57,-380.69 298.57,-380.73"/>
</a>
</g>
</g>
<!-- Node0x56e38e3284d0&#45;&gt;Node0x56e38e327e50 -->
<g id="edge6" class="edge">
<title>Node0x56e38e3284d0:s0&#45;&gt;Node0x56e38e327e50</title>
<g id="a_edge6"><a xlink:title="29 &#45;&gt; .loopexit&#10;Probability 3.12%">
<path fill="none" stroke="black" d="M148,-106C148,-64.77 434.16,-52.29 561.79,-48.78"/>
<polygon fill="black" stroke="black" points="562.27,-52.27 572.17,-48.5 562.08,-45.27 562.27,-52.27"/>
</a>
</g>
</g>
<!-- Node0x56e38e3284d0&#45;&gt;Node0x56e38e328400 -->
<g id="edge7" class="edge">
<title>Node0x56e38e3284d0:s1&#45;&gt;Node0x56e38e328400</title>
<g id="a_edge7"><a xlink:title="29 &#45;&gt; 14&#10;Probability 96.88%">
<path fill="none" stroke="black" d="M446,-105.5C446,-89.06 582.41,-94.83 594,-106.5 614.71,-127.35 604.01,-343.37 594,-371 590.61,-380.35 586.48,-389.54 581.79,-398.53"/>
<polygon fill="black" stroke="black" points="578.64,-396.99 576.92,-407.45 584.79,-400.35 578.64,-396.99"/>
</a>
</g>
</g>
</g>
</svg>
