<?xml version="1.0" encoding="UTF-8" standalone="no"?>
<!DOCTYPE svg PUBLIC "-//W3C//DTD SVG 1.1//EN"
 "http://www.w3.org/Graphics/SVG/1.1/DTD/svg11.dtd">
<!-- Generated by graphviz version 2.43.0 (0)
 -->
<!-- Title: CFG for &#39;SiftUp&#39; function Pages: 1 -->
<svg width="863pt" height="959pt"
 viewBox="0.00 0.00 862.50 959.00" xmlns="http://www.w3.org/2000/svg" xmlns:xlink="http://www.w3.org/1999/xlink">
<g id="graph0" class="graph" transform="scale(1 1) rotate(0) translate(4 955)">
<title>CFG for &#39;SiftUp&#39; function</title>
<polygon fill="white" stroke="transparent" points="-4,4 -4,-955 858.5,-955 858.5,4 -4,4"/>
<text text-anchor="middle" x="427.25" y="-7.8" font-family="Times,serif" font-size="14.00">CFG for &#39;SiftUp&#39; function</text>
<!-- Node0x56e38e3209c0 -->
<g id="node1" class="node">
<title>Node0x56e38e3209c0</title>
<polygon fill="#cc403a" fill-opacity="0.439216" stroke="#3d50c3" points="375.5,-866.5 375.5,-950.5 854.5,-950.5 854.5,-866.5 375.5,-866.5"/>
<text text-anchor="start" x="383.5" y="-935.3" font-family="Courier,monospace" font-size="14.00">2:</text>
<polyline fill="none" stroke="#3d50c3" points="375.5,-927.5 854.5,-927.5 "/>
<text text-anchor="start" x="383.5" y="-912.3" font-family="Courier,monospace" font-size="14.00">%3 = icmp sgt i32 %1, 0</text>
<text text-anchor="start" x="383.5" y="-897.3" font-family="Courier,monospace" font-size="14.00"> br i1 %3, label %.preheader.preheader, label %.loopexit</text>
<polyline fill="none" stroke="#3d50c3" points="375.5,-889.5 854.5,-889.5 "/>
<text text-anchor="middle" x="495" y="-874.3" font-family="Courier,monospace" font-size="14.00">T</text>
<polyline fill="none" stroke="#3d50c3" points="614.5,-866.5 614.5,-889.5 "/>
<text text-anchor="middle" x="734.5" y="-874.3" font-family="Courier,monospace" font-size="14.00">F</text>
</g>
<!-- Node0x56e38e320ae0 -->
<g id="node2" class="node">
<title>Node0x56e38e320ae0</title>
<polygon fill="#d0473d" fill-opacity="0.439216" stroke="#3d50c3" points="118,-723.5 118,-829.5 762,-829.5 762,-723.5 118,-723.5"/>
<text text-anchor="start" x="126" y="-814.3" font-family="Courier,monospace" font-size="14.00">.preheader.preheader:</text>
<polyline fill="none" stroke="#3d50c3" points="118,-806.5 762,-806.5 "/>
<text text-anchor="start" x="126" y="-791.3" font-family="Courier,monospace" font-size="14.00">%.phi.trans.insert = zext nneg i32 %1 to i64</text>
<text text-anchor="start" x="126" y="-776.3" font-family="Courier,monospace" font-size="14.00"> %.phi.trans.insert1 = getelementptr inbounds [100001 x i32], ptr %0, i64 0,</text>
<text text-anchor="start" x="126" y="-761.3" font-family="Courier,monospace" font-size="14.00">... i64 %.phi.trans.insert</text>
<text text-anchor="start" x="126" y="-746.3" font-family="Courier,monospace" font-size="14.00"> %.pre = load i32, ptr %.phi.trans.insert1, align 4, !tbaa !5</text>
<text text-anchor="start" x="126" y="-731.3" font-family="Courier,monospace" font-size="14.00"> br label %.preheader</text>
</g>
<!-- Node0x56e38e3209c0&#45;&gt;Node0x56e38e320ae0 -->
<g id="edge1" class="edge">
<title>Node0x56e38e3209c0:s0&#45;&gt;Node0x56e38e320ae0</title>
<g id="a_edge1"><a xlink:title="2 &#45;&gt; .preheader.preheader&#10;Probability 62.50%">
<path fill="none" stroke="black" d="M495,-866C495,-856.7 492.78,-847.57 489.24,-838.91"/>
<polygon fill="black" stroke="black" points="492.34,-837.27 484.91,-829.71 486,-840.25 492.34,-837.27"/>
</a>
</g>
</g>
<!-- Node0x56e38e320cb0 -->
<g id="node3" class="node">
<title>Node0x56e38e320cb0</title>
<polygon fill="#cc403a" fill-opacity="0.439216" stroke="#3d50c3" points="572.5,-23.5 572.5,-69.5 671.5,-69.5 671.5,-23.5 572.5,-23.5"/>
<text text-anchor="start" x="580.5" y="-54.3" font-family="Courier,monospace" font-size="14.00">.loopexit:</text>
<polyline fill="none" stroke="#3d50c3" points="572.5,-46.5 671.5,-46.5 "/>
<text text-anchor="start" x="580.5" y="-31.3" font-family="Courier,monospace" font-size="14.00">ret void</text>
</g>
<!-- Node0x56e38e3209c0&#45;&gt;Node0x56e38e320cb0 -->
<g id="edge2" class="edge">
<title>Node0x56e38e3209c0:s1&#45;&gt;Node0x56e38e320cb0</title>
<g id="a_edge2"><a xlink:title="2 &#45;&gt; .loopexit&#10;Probability 37.50%">
<path fill="none" stroke="black" d="M735,-866C735,-843.37 762.34,-850.91 771,-830 790.97,-781.79 807.65,-632.29 762,-407 736.31,-280.2 669.68,-140.07 638.52,-78.92"/>
<polygon fill="black" stroke="black" points="641.52,-77.1 633.83,-69.8 635.29,-80.3 641.52,-77.1"/>
</a>
</g>
</g>
<!-- Node0x56e38e320c50 -->
<g id="node4" class="node">
<title>Node0x56e38e320c50</title>
<polygon fill="#b70d28" fill-opacity="0.439216" stroke="#b70d28" points="142.5,-407.5 142.5,-686.5 753.5,-686.5 753.5,-407.5 142.5,-407.5"/>
<text text-anchor="start" x="150.5" y="-671.3" font-family="Courier,monospace" font-size="14.00">.preheader:</text>
<polyline fill="none" stroke="#b70d28" points="142.5,-663.5 753.5,-663.5 "/>
<text text-anchor="start" x="150.5" y="-648.3" font-family="Courier,monospace" font-size="14.00">%4 = phi i32 [ %25, %18 ], [ %.pre, %.preheader.preheader ]</text>
<text text-anchor="start" x="150.5" y="-633.3" font-family="Courier,monospace" font-size="14.00"> %5 = phi i32 [ %10, %18 ], [ %1, %.preheader.preheader ]</text>
<text text-anchor="start" x="150.5" y="-618.3" font-family="Courier,monospace" font-size="14.00"> %6 = sext i32 %4 to i64</text>
<text text-anchor="start" x="150.5" y="-603.3" font-family="Courier,monospace" font-size="14.00"> %7 = getelementptr inbounds [100001 x i64], ptr @dist1, i64 0, i64 %6</text>
<text text-anchor="start" x="150.5" y="-588.3" font-family="Courier,monospace" font-size="14.00"> %8 = load i64, ptr %7, align 8, !tbaa !9</text>
<text text-anchor="start" x="150.5" y="-573.3" font-family="Courier,monospace" font-size="14.00"> %9 = add nsw i32 %5, &#45;1</text>
<text text-anchor="start" x="150.5" y="-558.3" font-family="Courier,monospace" font-size="14.00"> %10 = lshr i32 %9, 1</text>
<text text-anchor="start" x="150.5" y="-543.3" font-family="Courier,monospace" font-size="14.00"> %11 = zext nneg i32 %10 to i64</text>
<text text-anchor="start" x="150.5" y="-528.3" font-family="Courier,monospace" font-size="14.00"> %12 = getelementptr inbounds [100001 x i32], ptr %0, i64 0, i64 %11</text>
<text text-anchor="start" x="150.5" y="-513.3" font-family="Courier,monospace" font-size="14.00"> %13 = load i32, ptr %12, align 4, !tbaa !5</text>
<text text-anchor="start" x="150.5" y="-498.3" font-family="Courier,monospace" font-size="14.00"> %14 = sext i32 %13 to i64</text>
<text text-anchor="start" x="150.5" y="-483.3" font-family="Courier,monospace" font-size="14.00"> %15 = getelementptr inbounds [100001 x i64], ptr @dist1, i64 0, i64 %14</text>
<text text-anchor="start" x="150.5" y="-468.3" font-family="Courier,monospace" font-size="14.00"> %16 = load i64, ptr %15, align 8, !tbaa !9</text>
<text text-anchor="start" x="150.5" y="-453.3" font-family="Courier,monospace" font-size="14.00"> %17 = icmp ult i64 %8, %16</text>
<text text-anchor="start" x="150.5" y="-438.3" font-family="Courier,monospace" font-size="14.00"> br i1 %17, label %18, label %.loopexit</text>
<polyline fill="none" stroke="#b70d28" points="142.5,-430.5 753.5,-430.5 "/>
<text text-anchor="middle" x="295" y="-415.3" font-family="Courier,monospace" font-size="14.00">T</text>
<polyline fill="none" stroke="#b70d28" points="447.5,-407.5 447.5,-430.5 "/>
<text text-anchor="middle" x="600.5" y="-415.3" font-family="Courier,monospace" font-size="14.00">F</text>
</g>
<!-- Node0x56e38e320ae0&#45;&gt;Node0x56e38e320c50 -->
<g id="edge3" class="edge">
<title>Node0x56e38e320ae0&#45;&gt;Node0x56e38e320c50</title>
<g id="a_edge3"><a xlink:title=".preheader.preheader &#45;&gt; .preheader&#10;Probability 100.00%">
<path fill="none" stroke="black" d="M441.84,-723.31C442.13,-715.02 442.44,-706.11 442.77,-696.86"/>
<polygon fill="black" stroke="black" points="446.27,-696.82 443.12,-686.7 439.27,-696.57 446.27,-696.82"/>
</a>
</g>
</g>
<!-- Node0x56e38e320c50&#45;&gt;Node0x56e38e320cb0 -->
<g id="edge5" class="edge">
<title>Node0x56e38e320c50:s1&#45;&gt;Node0x56e38e320cb0</title>
<g id="a_edge5"><a xlink:title=".preheader &#45;&gt; .loopexit&#10;Probability 3.12%">
<path fill="none" stroke="black" d="M601,-407C601,-404.96 614.94,-167.66 620.1,-79.76"/>
<polygon fill="black" stroke="black" points="623.61,-79.76 620.7,-69.57 616.62,-79.35 623.61,-79.76"/>
</a>
</g>
</g>
<!-- Node0x56e38e321b00 -->
<g id="node5" class="node">
<title>Node0x56e38e321b00</title>
<polygon fill="#b70d28" fill-opacity="0.439216" stroke="#b70d28" points="0,-106.5 0,-370.5 594,-370.5 594,-106.5 0,-106.5"/>
<text text-anchor="start" x="8" y="-355.3" font-family="Courier,monospace" font-size="14.00">18:</text>
<polyline fill="none" stroke="#b70d28" points="0,-347.5 594,-347.5 "/>
<text text-anchor="start" x="8" y="-332.3" font-family="Courier,monospace" font-size="14.00">%19 = zext nneg i32 %5 to i64</text>
<text text-anchor="start" x="8" y="-317.3" font-family="Courier,monospace" font-size="14.00"> %20 = getelementptr inbounds [100001 x i32], ptr %0, i64 0, i64 %19</text>
<text text-anchor="start" x="8" y="-302.3" font-family="Courier,monospace" font-size="14.00"> %21 = getelementptr inbounds [100001 x i32], ptr @num, i64 0, i64 %6</text>
<text text-anchor="start" x="8" y="-287.3" font-family="Courier,monospace" font-size="14.00"> store i32 %10, ptr %21, align 4, !tbaa !5</text>
<text text-anchor="start" x="8" y="-272.3" font-family="Courier,monospace" font-size="14.00"> %22 = load i32, ptr %12, align 4, !tbaa !5</text>
<text text-anchor="start" x="8" y="-257.3" font-family="Courier,monospace" font-size="14.00"> %23 = sext i32 %22 to i64</text>
<text text-anchor="start" x="8" y="-242.3" font-family="Courier,monospace" font-size="14.00"> %24 = getelementptr inbounds [100001 x i32], ptr @num, i64 0, i64 %23</text>
<text text-anchor="start" x="8" y="-227.3" font-family="Courier,monospace" font-size="14.00"> store i32 %5, ptr %24, align 4, !tbaa !5</text>
<text text-anchor="start" x="8" y="-212.3" font-family="Courier,monospace" font-size="14.00"> %25 = load i32, ptr %20, align 4, !tbaa !5</text>
<text text-anchor="start" x="8" y="-197.3" font-family="Courier,monospace" font-size="14.00"> %26 = load i32, ptr %12, align 4, !tbaa !5</text>
<text text-anchor="start" x="8" y="-182.3" font-family="Courier,monospace" font-size="14.00"> store i32 %26, ptr %20, align 4, !tbaa !5</text>
<text text-anchor="start" x="8" y="-167.3" font-family="Courier,monospace" font-size="14.00"> store i32 %25, ptr %12, align 4, !tbaa !5</text>
<text text-anchor="start" x="8" y="-152.3" font-family="Courier,monospace" font-size="14.00"> %27 = icmp ult i32 %9, 2</text>
<text text-anchor="start" x="8" y="-137.3" font-family="Courier,monospace" font-size="14.00"> br i1 %27, label %.loopexit, label %.preheader, !llvm.loop !11</text>
<polyline fill="none" stroke="#b70d28" points="0,-129.5 594,-129.5 "/>
<text text-anchor="middle" x="148.5" y="-114.3" font-family="Courier,monospace" font-size="14.00">T</text>
<polyline fill="none" stroke="#b70d28" points="297,-106.5 297,-129.5 "/>
<text text-anchor="middle" x="445.5" y="-114.3" font-family="Courier,monospace" font-size="14.00">F</text>
</g>
<!-- Node0x56e38e320c50&#45;&gt;Node0x56e38e321b00 -->
<g id="edge4" class="edge">
<title>Node0x56e38e320c50:s0&#45;&gt;Node0x56e38e321b00</title>
<g id="a_edge4"><a xlink:title=".preheader &#45;&gt; 18&#10;Probability 96.88%">
<path fill="none" stroke="black" d="M295,-407C295,-398.44 295.03,-389.64 295.07,-380.76"/>
<polygon fill="black" stroke="black" points="298.57,-380.73 295.13,-370.71 291.57,-380.69 298.57,-380.73"/>
</a>
</g>
</g>
<!-- Node0x56e38e321b00&#45;&gt;Node0x56e38e320cb0 -->
<g id="edge6" class="edge">
<title>Node0x56e38e321b00:s0&#45;&gt;Node0x56e38e320cb0</title>
<g id="a_edge6"><a xlink:title="18 &#45;&gt; .loopexit&#10;Probability 3.12%">
<path fill="none" stroke="black" d="M148,-106C148,-64.77 434.16,-52.29 561.79,-48.78"/>
<polygon fill="black" stroke="black" points="562.27,-52.27 572.17,-48.5 562.08,-45.27 562.27,-52.27"/>
</a>
</g>
</g>
<!-- Node0x56e38e321b00&#45;&gt;Node0x56e38e320c50 -->
<g id="edge7" class="edge">
<title>Node0x56e38e321b00:s1&#45;&gt;Node0x56e38e320c50</title>
<g id="a_edge7"><a xlink:title="18 &#45;&gt; .preheader&#10;Probability 96.88%">
<path fill="none" stroke="black" d="M446,-105.5C446,-89.06 582.41,-94.83 594,-106.5 614.71,-127.35 604.01,-343.37 594,-371 590.61,-380.35 586.48,-389.54 581.79,-398.53"/>
<polygon fill="black" stroke="black" points="578.64,-396.99 576.92,-407.45 584.79,-400.35 578.64,-396.99"/>
</a>
</g>
</g>
</g>
</svg>
