<?xml version="1.0" encoding="UTF-8" standalone="no"?>
<!DOCTYPE svg PUBLIC "-//W3C//DTD SVG 1.1//EN"
 "http://www.w3.org/Graphics/SVG/1.1/DTD/svg11.dtd">
<!-- Generated by graphviz version 2.43.0 (0)
 -->
<!-- Title: CFG for &#39;pop&#39; function Pages: 1 -->
<svg width="1027pt" height="1605pt"
 viewBox="0.00 0.00 1026.50 1605.00" xmlns="http://www.w3.org/2000/svg" xmlns:xlink="http://www.w3.org/1999/xlink">
<g id="graph0" class="graph" transform="scale(1 1) rotate(0) translate(4 1601)">
<title>CFG for &#39;pop&#39; function</title>
<polygon fill="white" stroke="transparent" points="-4,4 -4,-1601 1022.5,-1601 1022.5,4 -4,4"/>
<text text-anchor="middle" x="509.25" y="-7.8" font-family="Times,serif" font-size="14.00">CFG for &#39;pop&#39; function</text>
<!-- Node0x564183ab4dc0 -->
<g id="node1" class="node">
<title>Node0x564183ab4dc0</title>
<polygon fill="#d65244" fill-opacity="0.439216" stroke="#3d50c3" points="330,-1415.5 330,-1596.5 891,-1596.5 891,-1415.5 330,-1415.5"/>
<text text-anchor="start" x="338" y="-1581.3" font-family="Courier,monospace" font-size="14.00">1:</text>
<polyline fill="none" stroke="#3d50c3" points="330,-1573.5 891,-1573.5 "/>
<text text-anchor="start" x="338" y="-1558.3" font-family="Courier,monospace" font-size="14.00">%2 = load i32, ptr %0, align 4, !tbaa !5</text>
<text text-anchor="start" x="338" y="-1543.3" font-family="Courier,monospace" font-size="14.00"> %3 = getelementptr inbounds i8, ptr %0, i64 400004</text>
<text text-anchor="start" x="338" y="-1528.3" font-family="Courier,monospace" font-size="14.00"> %4 = load i32, ptr %3, align 4, !tbaa !9</text>
<text text-anchor="start" x="338" y="-1513.3" font-family="Courier,monospace" font-size="14.00"> %5 = add nsw i32 %4, &#45;1</text>
<text text-anchor="start" x="338" y="-1498.3" font-family="Courier,monospace" font-size="14.00"> store i32 %5, ptr %3, align 4, !tbaa !9</text>
<text text-anchor="start" x="338" y="-1483.3" font-family="Courier,monospace" font-size="14.00"> %6 = sext i32 %5 to i64</text>
<text text-anchor="start" x="338" y="-1468.3" font-family="Courier,monospace" font-size="14.00"> %7 = getelementptr inbounds [100001 x i32], ptr %0, i64 0, i64 %6</text>
<text text-anchor="start" x="338" y="-1453.3" font-family="Courier,monospace" font-size="14.00"> %8 = load i32, ptr %7, align 4, !tbaa !5</text>
<text text-anchor="start" x="338" y="-1438.3" font-family="Courier,monospace" font-size="14.00"> store i32 %8, ptr %0, align 4, !tbaa !5</text>
<text text-anchor="start" x="338" y="-1423.3" font-family="Courier,monospace" font-size="14.00"> br label %9</text>
</g>
<!-- Node0x564183ab8890 -->
<g id="node2" class="node">
<title>Node0x564183ab8890</title>
<polygon fill="#b70d28" fill-opacity="0.439216" stroke="#b70d28" points="313.5,-1159.5 313.5,-1378.5 907.5,-1378.5 907.5,-1159.5 313.5,-1159.5"/>
<text text-anchor="start" x="321.5" y="-1363.3" font-family="Courier,monospace" font-size="14.00">9:</text>
<polyline fill="none" stroke="#b70d28" points="313.5,-1355.5 907.5,-1355.5 "/>
<text text-anchor="start" x="321.5" y="-1340.3" font-family="Courier,monospace" font-size="14.00">%.sink3 = phi i32 [ %63, %53 ], [ %8, %1 ]</text>
<text text-anchor="start" x="321.5" y="-1325.3" font-family="Courier,monospace" font-size="14.00"> %.sink = phi i32 [ %51, %53 ], [ 0, %1 ]</text>
<text text-anchor="start" x="321.5" y="-1310.3" font-family="Courier,monospace" font-size="14.00"> %10 = sext i32 %.sink3 to i64</text>
<text text-anchor="start" x="321.5" y="-1295.3" font-family="Courier,monospace" font-size="14.00"> %11 = getelementptr inbounds [100001 x i32], ptr @num, i64 0, i64 %10</text>
<text text-anchor="start" x="321.5" y="-1280.3" font-family="Courier,monospace" font-size="14.00"> store i32 %.sink, ptr %11, align 4, !tbaa !5</text>
<text text-anchor="start" x="321.5" y="-1265.3" font-family="Courier,monospace" font-size="14.00"> %12 = shl nsw i32 %.sink, 1</text>
<text text-anchor="start" x="321.5" y="-1250.3" font-family="Courier,monospace" font-size="14.00"> %13 = or disjoint i32 %12, 1</text>
<text text-anchor="start" x="321.5" y="-1235.3" font-family="Courier,monospace" font-size="14.00"> %14 = add nsw i32 %12, 2</text>
<text text-anchor="start" x="321.5" y="-1220.3" font-family="Courier,monospace" font-size="14.00"> %15 = load i32, ptr %3, align 4, !tbaa !9</text>
<text text-anchor="start" x="321.5" y="-1205.3" font-family="Courier,monospace" font-size="14.00"> %16 = icmp slt i32 %13, %15</text>
<text text-anchor="start" x="321.5" y="-1190.3" font-family="Courier,monospace" font-size="14.00"> br i1 %16, label %17, label %32</text>
<polyline fill="none" stroke="#b70d28" points="313.5,-1182.5 907.5,-1182.5 "/>
<text text-anchor="middle" x="462" y="-1167.3" font-family="Courier,monospace" font-size="14.00">T</text>
<polyline fill="none" stroke="#b70d28" points="610.5,-1159.5 610.5,-1182.5 "/>
<text text-anchor="middle" x="759" y="-1167.3" font-family="Courier,monospace" font-size="14.00">F</text>
</g>
<!-- Node0x564183ab4dc0&#45;&gt;Node0x564183ab8890 -->
<g id="edge1" class="edge">
<title>Node0x564183ab4dc0&#45;&gt;Node0x564183ab8890</title>
<g id="a_edge1"><a xlink:title="1 &#45;&gt; 9&#10;Probability 100.00%">
<path fill="none" stroke="black" d="M610.5,-1415.49C610.5,-1406.72 610.5,-1397.74 610.5,-1388.74"/>
<polygon fill="black" stroke="black" points="614,-1388.59 610.5,-1378.59 607,-1388.59 614,-1388.59"/>
</a>
</g>
</g>
<!-- Node0x564183ab9130 -->
<g id="node3" class="node">
<title>Node0x564183ab9130</title>
<polygon fill="#be242e" fill-opacity="0.439216" stroke="#3d50c3" points="82,-866.5 82,-1122.5 693,-1122.5 693,-866.5 82,-866.5"/>
<text text-anchor="start" x="90" y="-1107.3" font-family="Courier,monospace" font-size="14.00">17:</text>
<polyline fill="none" stroke="#3d50c3" points="82,-1099.5 693,-1099.5 "/>
<text text-anchor="start" x="90" y="-1084.3" font-family="Courier,monospace" font-size="14.00">%18 = sext i32 %13 to i64</text>
<text text-anchor="start" x="90" y="-1069.3" font-family="Courier,monospace" font-size="14.00"> %19 = getelementptr inbounds [100001 x i32], ptr %0, i64 0, i64 %18</text>
<text text-anchor="start" x="90" y="-1054.3" font-family="Courier,monospace" font-size="14.00"> %20 = load i32, ptr %19, align 4, !tbaa !5</text>
<text text-anchor="start" x="90" y="-1039.3" font-family="Courier,monospace" font-size="14.00"> %21 = sext i32 %20 to i64</text>
<text text-anchor="start" x="90" y="-1024.3" font-family="Courier,monospace" font-size="14.00"> %22 = getelementptr inbounds [100001 x i64], ptr @dist1, i64 0, i64 %21</text>
<text text-anchor="start" x="90" y="-1009.3" font-family="Courier,monospace" font-size="14.00"> %23 = load i64, ptr %22, align 8, !tbaa !11</text>
<text text-anchor="start" x="90" y="-994.3" font-family="Courier,monospace" font-size="14.00"> %24 = sext i32 %.sink to i64</text>
<text text-anchor="start" x="90" y="-979.3" font-family="Courier,monospace" font-size="14.00"> %25 = getelementptr inbounds [100001 x i32], ptr %0, i64 0, i64 %24</text>
<text text-anchor="start" x="90" y="-964.3" font-family="Courier,monospace" font-size="14.00"> %26 = load i32, ptr %25, align 4, !tbaa !5</text>
<text text-anchor="start" x="90" y="-949.3" font-family="Courier,monospace" font-size="14.00"> %27 = sext i32 %26 to i64</text>
<text text-anchor="start" x="90" y="-934.3" font-family="Courier,monospace" font-size="14.00"> %28 = getelementptr inbounds [100001 x i64], ptr @dist1, i64 0, i64 %27</text>
<text text-anchor="start" x="90" y="-919.3" font-family="Courier,monospace" font-size="14.00"> %29 = load i64, ptr %28, align 8, !tbaa !11</text>
<text text-anchor="start" x="90" y="-904.3" font-family="Courier,monospace" font-size="14.00"> %30 = icmp ult i64 %23, %29</text>
<text text-anchor="start" x="90" y="-889.3" font-family="Courier,monospace" font-size="14.00"> %31 = select i1 %30, i32 %13, i32 %.sink</text>
<text text-anchor="start" x="90" y="-874.3" font-family="Courier,monospace" font-size="14.00"> br label %32</text>
</g>
<!-- Node0x564183ab8890&#45;&gt;Node0x564183ab9130 -->
<g id="edge2" class="edge">
<title>Node0x564183ab8890:s0&#45;&gt;Node0x564183ab9130</title>
<g id="a_edge2"><a xlink:title="9 &#45;&gt; 17&#10;Probability 50.00%">
<path fill="none" stroke="black" d="M461.5,-1159C461.5,-1150.17 460.59,-1141.29 458.98,-1132.49"/>
<polygon fill="black" stroke="black" points="462.38,-1131.63 456.87,-1122.58 455.53,-1133.09 462.38,-1131.63"/>
</a>
</g>
</g>
<!-- Node0x564183ab91d0 -->
<g id="node4" class="node">
<title>Node0x564183ab91d0</title>
<polygon fill="#b70d28" fill-opacity="0.439216" stroke="#b70d28" points="251,-730.5 251,-829.5 614,-829.5 614,-730.5 251,-730.5"/>
<text text-anchor="start" x="259" y="-814.3" font-family="Courier,monospace" font-size="14.00">32:</text>
<polyline fill="none" stroke="#b70d28" points="251,-806.5 614,-806.5 "/>
<text text-anchor="start" x="259" y="-791.3" font-family="Courier,monospace" font-size="14.00">%33 = phi i32 [ %.sink, %9 ], [ %31, %17 ]</text>
<text text-anchor="start" x="259" y="-776.3" font-family="Courier,monospace" font-size="14.00"> %34 = icmp slt i32 %14, %15</text>
<text text-anchor="start" x="259" y="-761.3" font-family="Courier,monospace" font-size="14.00"> br i1 %34, label %35, label %50</text>
<polyline fill="none" stroke="#b70d28" points="251,-753.5 614,-753.5 "/>
<text text-anchor="middle" x="341.5" y="-738.3" font-family="Courier,monospace" font-size="14.00">T</text>
<polyline fill="none" stroke="#b70d28" points="432,-730.5 432,-753.5 "/>
<text text-anchor="middle" x="523" y="-738.3" font-family="Courier,monospace" font-size="14.00">F</text>
</g>
<!-- Node0x564183ab8890&#45;&gt;Node0x564183ab91d0 -->
<g id="edge3" class="edge">
<title>Node0x564183ab8890:s1&#45;&gt;Node0x564183ab91d0</title>
<g id="a_edge3"><a xlink:title="9 &#45;&gt; 32&#10;Probability 50.00%">
<path fill="none" stroke="black" d="M759.5,-1159C759.5,-1026.34 790.87,-964.95 702.5,-866 681.22,-842.17 653.32,-824.96 623.56,-812.54"/>
<polygon fill="black" stroke="black" points="624.85,-809.29 614.26,-808.84 622.26,-815.79 624.85,-809.29"/>
</a>
</g>
</g>
<!-- Node0x564183ab9130&#45;&gt;Node0x564183ab91d0 -->
<g id="edge4" class="edge">
<title>Node0x564183ab9130&#45;&gt;Node0x564183ab91d0</title>
<g id="a_edge4"><a xlink:title="17 &#45;&gt; 32&#10;Probability 100.00%">
<path fill="none" stroke="black" d="M414.46,-866.21C416.4,-857.03 418.3,-848.08 420.09,-839.63"/>
<polygon fill="black" stroke="black" points="423.56,-840.1 422.21,-829.59 416.71,-838.65 423.56,-840.1"/>
</a>
</g>
</g>
<!-- Node0x564183ab9ce0 -->
<g id="node5" class="node">
<title>Node0x564183ab9ce0</title>
<polygon fill="#be242e" fill-opacity="0.439216" stroke="#3d50c3" points="0,-437.5 0,-693.5 611,-693.5 611,-437.5 0,-437.5"/>
<text text-anchor="start" x="8" y="-678.3" font-family="Courier,monospace" font-size="14.00">35:</text>
<polyline fill="none" stroke="#3d50c3" points="0,-670.5 611,-670.5 "/>
<text text-anchor="start" x="8" y="-655.3" font-family="Courier,monospace" font-size="14.00">%36 = sext i32 %14 to i64</text>
<text text-anchor="start" x="8" y="-640.3" font-family="Courier,monospace" font-size="14.00"> %37 = getelementptr inbounds [100001 x i32], ptr %0, i64 0, i64 %36</text>
<text text-anchor="start" x="8" y="-625.3" font-family="Courier,monospace" font-size="14.00"> %38 = load i32, ptr %37, align 4, !tbaa !5</text>
<text text-anchor="start" x="8" y="-610.3" font-family="Courier,monospace" font-size="14.00"> %39 = sext i32 %38 to i64</text>
<text text-anchor="start" x="8" y="-595.3" font-family="Courier,monospace" font-size="14.00"> %40 = getelementptr inbounds [100001 x i64], ptr @dist1, i64 0, i64 %39</text>
<text text-anchor="start" x="8" y="-580.3" font-family="Courier,monospace" font-size="14.00"> %41 = load i64, ptr %40, align 8, !tbaa !11</text>
<text text-anchor="start" x="8" y="-565.3" font-family="Courier,monospace" font-size="14.00"> %42 = sext i32 %33 to i64</text>
<text text-anchor="start" x="8" y="-550.3" font-family="Courier,monospace" font-size="14.00"> %43 = getelementptr inbounds [100001 x i32], ptr %0, i64 0, i64 %42</text>
<text text-anchor="start" x="8" y="-535.3" font-family="Courier,monospace" font-size="14.00"> %44 = load i32, ptr %43, align 4, !tbaa !5</text>
<text text-anchor="start" x="8" y="-520.3" font-family="Courier,monospace" font-size="14.00"> %45 = sext i32 %44 to i64</text>
<text text-anchor="start" x="8" y="-505.3" font-family="Courier,monospace" font-size="14.00"> %46 = getelementptr inbounds [100001 x i64], ptr @dist1, i64 0, i64 %45</text>
<text text-anchor="start" x="8" y="-490.3" font-family="Courier,monospace" font-size="14.00"> %47 = load i64, ptr %46, align 8, !tbaa !11</text>
<text text-anchor="start" x="8" y="-475.3" font-family="Courier,monospace" font-size="14.00"> %48 = icmp ult i64 %41, %47</text>
<text text-anchor="start" x="8" y="-460.3" font-family="Courier,monospace" font-size="14.00"> %49 = select i1 %48, i32 %14, i32 %33</text>
<text text-anchor="start" x="8" y="-445.3" font-family="Courier,monospace" font-size="14.00"> br label %50</text>
</g>
<!-- Node0x564183ab91d0&#45;&gt;Node0x564183ab9ce0 -->
<g id="edge5" class="edge">
<title>Node0x564183ab91d0:s0&#45;&gt;Node0x564183ab9ce0</title>
<g id="a_edge5"><a xlink:title="32 &#45;&gt; 35&#10;Probability 50.00%">
<path fill="none" stroke="black" d="M341.5,-730C341.5,-721.34 341.01,-712.48 340.15,-703.59"/>
<polygon fill="black" stroke="black" points="343.62,-703.09 339.03,-693.55 336.66,-703.87 343.62,-703.09"/>
</a>
</g>
</g>
<!-- Node0x564183ab9d40 -->
<g id="node6" class="node">
<title>Node0x564183ab9d40</title>
<polygon fill="#b70d28" fill-opacity="0.439216" stroke="#b70d28" points="285,-301.5 285,-400.5 656,-400.5 656,-301.5 285,-301.5"/>
<text text-anchor="start" x="293" y="-385.3" font-family="Courier,monospace" font-size="14.00">50:</text>
<polyline fill="none" stroke="#b70d28" points="285,-377.5 656,-377.5 "/>
<text text-anchor="start" x="293" y="-362.3" font-family="Courier,monospace" font-size="14.00">%51 = phi i32 [ %33, %32 ], [ %49, %35 ]</text>
<text text-anchor="start" x="293" y="-347.3" font-family="Courier,monospace" font-size="14.00"> %52 = icmp eq i32 %51, %.sink</text>
<text text-anchor="start" x="293" y="-332.3" font-family="Courier,monospace" font-size="14.00"> br i1 %52, label %SiftDown.exit, label %53</text>
<polyline fill="none" stroke="#b70d28" points="285,-324.5 656,-324.5 "/>
<text text-anchor="middle" x="377.5" y="-309.3" font-family="Courier,monospace" font-size="14.00">T</text>
<polyline fill="none" stroke="#b70d28" points="470,-301.5 470,-324.5 "/>
<text text-anchor="middle" x="563" y="-309.3" font-family="Courier,monospace" font-size="14.00">F</text>
</g>
<!-- Node0x564183ab91d0&#45;&gt;Node0x564183ab9d40 -->
<g id="edge6" class="edge">
<title>Node0x564183ab91d0:s1&#45;&gt;Node0x564183ab9d40</title>
<g id="a_edge6"><a xlink:title="32 &#45;&gt; 50&#10;Probability 50.00%">
<path fill="none" stroke="black" d="M615.5,-742C656.58,-742 789.99,-727.85 620.5,-437 613.89,-425.67 605.15,-415.72 595.2,-407.02"/>
<polygon fill="black" stroke="black" points="597.33,-404.24 587.37,-400.61 592.89,-409.65 597.33,-404.24"/>
</a>
</g>
</g>
<!-- Node0x564183ab9ce0&#45;&gt;Node0x564183ab9d40 -->
<g id="edge7" class="edge">
<title>Node0x564183ab9ce0&#45;&gt;Node0x564183ab9d40</title>
<g id="a_edge7"><a xlink:title="35 &#45;&gt; 50&#10;Probability 100.00%">
<path fill="none" stroke="black" d="M404.34,-437.21C412.01,-427.33 419.49,-417.7 426.49,-408.69"/>
<polygon fill="black" stroke="black" points="429.4,-410.63 432.77,-400.59 423.87,-406.34 429.4,-410.63"/>
</a>
</g>
</g>
<!-- Node0x564183abb430 -->
<g id="node7" class="node">
<title>Node0x564183abb430</title>
<polygon fill="#d65244" fill-opacity="0.439216" stroke="#3d50c3" points="274.5,-121 274.5,-167 406.5,-167 406.5,-121 274.5,-121"/>
<text text-anchor="start" x="282.5" y="-151.8" font-family="Courier,monospace" font-size="14.00">SiftDown.exit:</text>
<polyline fill="none" stroke="#3d50c3" points="274.5,-144 406.5,-144 "/>
<text text-anchor="start" x="282.5" y="-128.8" font-family="Courier,monospace" font-size="14.00">ret i32 %2</text>
</g>
<!-- Node0x564183ab9d40&#45;&gt;Node0x564183abb430 -->
<g id="edge8" class="edge">
<title>Node0x564183ab9d40:s0&#45;&gt;Node0x564183abb430</title>
<g id="a_edge8"><a xlink:title="50 &#45;&gt; SiftDown.exit&#10;Probability 3.12%">
<path fill="none" stroke="black" d="M377.5,-301C377.5,-256.92 363.34,-207.68 352.54,-176.53"/>
<polygon fill="black" stroke="black" points="355.83,-175.33 349.17,-167.08 349.23,-177.68 355.83,-175.33"/>
</a>
</g>
</g>
<!-- Node0x564183ab8960 -->
<g id="node8" class="node">
<title>Node0x564183ab8960</title>
<polygon fill="#b70d28" fill-opacity="0.439216" stroke="#b70d28" points="424.5,-23.5 424.5,-264.5 1018.5,-264.5 1018.5,-23.5 424.5,-23.5"/>
<text text-anchor="start" x="432.5" y="-249.3" font-family="Courier,monospace" font-size="14.00">53:</text>
<polyline fill="none" stroke="#b70d28" points="424.5,-241.5 1018.5,-241.5 "/>
<text text-anchor="start" x="432.5" y="-226.3" font-family="Courier,monospace" font-size="14.00">%54 = sext i32 %.sink to i64</text>
<text text-anchor="start" x="432.5" y="-211.3" font-family="Courier,monospace" font-size="14.00"> %55 = getelementptr inbounds [100001 x i32], ptr %0, i64 0, i64 %54</text>
<text text-anchor="start" x="432.5" y="-196.3" font-family="Courier,monospace" font-size="14.00"> %56 = sext i32 %51 to i64</text>
<text text-anchor="start" x="432.5" y="-181.3" font-family="Courier,monospace" font-size="14.00"> %57 = getelementptr inbounds [100001 x i32], ptr %0, i64 0, i64 %56</text>
<text text-anchor="start" x="432.5" y="-166.3" font-family="Courier,monospace" font-size="14.00"> %58 = load i32, ptr %55, align 4, !tbaa !5</text>
<text text-anchor="start" x="432.5" y="-151.3" font-family="Courier,monospace" font-size="14.00"> %59 = load i32, ptr %57, align 4, !tbaa !5</text>
<text text-anchor="start" x="432.5" y="-136.3" font-family="Courier,monospace" font-size="14.00"> store i32 %59, ptr %55, align 4, !tbaa !5</text>
<text text-anchor="start" x="432.5" y="-121.3" font-family="Courier,monospace" font-size="14.00"> store i32 %58, ptr %57, align 4, !tbaa !5</text>
<text text-anchor="start" x="432.5" y="-106.3" font-family="Courier,monospace" font-size="14.00"> %60 = load i32, ptr %55, align 4, !tbaa !5</text>
<text text-anchor="start" x="432.5" y="-91.3" font-family="Courier,monospace" font-size="14.00"> %61 = sext i32 %60 to i64</text>
<text text-anchor="start" x="432.5" y="-76.3" font-family="Courier,monospace" font-size="14.00"> %62 = getelementptr inbounds [100001 x i32], ptr @num, i64 0, i64 %61</text>
<text text-anchor="start" x="432.5" y="-61.3" font-family="Courier,monospace" font-size="14.00"> store i32 %.sink, ptr %62, align 4, !tbaa !5</text>
<text text-anchor="start" x="432.5" y="-46.3" font-family="Courier,monospace" font-size="14.00"> %63 = load i32, ptr %57, align 4, !tbaa !5</text>
<text text-anchor="start" x="432.5" y="-31.3" font-family="Courier,monospace" font-size="14.00"> br label %9</text>
</g>
<!-- Node0x564183ab9d40&#45;&gt;Node0x564183ab8960 -->
<g id="edge9" class="edge">
<title>Node0x564183ab9d40:s1&#45;&gt;Node0x564183ab8960</title>
<g id="a_edge9"><a xlink:title="50 &#45;&gt; 53&#10;Probability 96.88%">
<path fill="none" stroke="black" d="M657.5,-313C682.33,-313 697.9,-296.78 707.58,-274.42"/>
<polygon fill="black" stroke="black" points="710.94,-275.45 711.26,-264.86 704.4,-272.94 710.94,-275.45"/>
</a>
</g>
</g>
<!-- Node0x564183ab8960&#45;&gt;Node0x564183ab8890 -->
<g id="edge10" class="edge">
<title>Node0x564183ab8960&#45;&gt;Node0x564183ab8890</title>
<g id="a_edge10"><a xlink:title="53 &#45;&gt; 9&#10;Probability 100.00%">
<path fill="none" stroke="black" d="M721.5,-264.8C721.5,-348.7 721.5,-463.45 721.5,-564.5 721.5,-781 721.5,-781 721.5,-781 721.5,-933.23 749,-978.04 702.5,-1123 699.59,-1132.06 695.98,-1141.11 691.89,-1150.02"/>
<polygon fill="black" stroke="black" points="688.63,-1148.72 687.45,-1159.25 694.94,-1151.75 688.63,-1148.72"/>
</a>
</g>
</g>
</g>
</svg>
