<?xml version="1.0" encoding="UTF-8" standalone="no"?>
<!DOCTYPE svg PUBLIC "-//W3C//DTD SVG 1.1//EN"
 "http://www.w3.org/Graphics/SVG/1.1/DTD/svg11.dtd">
<!-- Generated by graphviz version 2.43.0 (0)
 -->
<!-- Title: CFG for &#39;resize&#39; function Pages: 1 -->
<svg width="1214pt" height="432pt"
 viewBox="0.00 0.00 1214.00 432.00" xmlns="http://www.w3.org/2000/svg" xmlns:xlink="http://www.w3.org/1999/xlink">
<g id="graph0" class="graph" transform="scale(1 1) rotate(0) translate(4 428)">
<title>CFG for &#39;resize&#39; function</title>
<polygon fill="white" stroke="transparent" points="-4,4 -4,-428 1210,-428 1210,4 -4,4"/>
<text text-anchor="middle" x="603" y="-7.8" font-family="Times,serif" font-size="14.00">CFG for &#39;resize&#39; function</text>
<!-- Node0x564183a40bb0 -->
<g id="node1" class="node">
<title>Node0x564183a40bb0</title>
<polygon fill="#b70d28" fill-opacity="0.439216" stroke="#b70d28" points="421.5,-309.5 421.5,-423.5 817.5,-423.5 817.5,-309.5 421.5,-309.5"/>
<text text-anchor="start" x="429.5" y="-408.3" font-family="Courier,monospace" font-size="14.00">1:</text>
<polyline fill="none" stroke="#b70d28" points="421.5,-400.5 817.5,-400.5 "/>
<text text-anchor="start" x="429.5" y="-385.3" font-family="Courier,monospace" font-size="14.00">%2 = getelementptr inbounds i8, ptr %0, i64 12</text>
<text text-anchor="start" x="429.5" y="-370.3" font-family="Courier,monospace" font-size="14.00"> %3 = load i32, ptr %2, align 4, !tbaa !5</text>
<text text-anchor="start" x="429.5" y="-355.3" font-family="Courier,monospace" font-size="14.00"> %4 = icmp eq i32 %3, 0</text>
<text text-anchor="start" x="429.5" y="-340.3" font-family="Courier,monospace" font-size="14.00"> br i1 %4, label %5, label %7</text>
<polyline fill="none" stroke="#b70d28" points="421.5,-332.5 817.5,-332.5 "/>
<text text-anchor="middle" x="520.5" y="-317.3" font-family="Courier,monospace" font-size="14.00">T</text>
<polyline fill="none" stroke="#b70d28" points="619.5,-309.5 619.5,-332.5 "/>
<text text-anchor="middle" x="718.5" y="-317.3" font-family="Courier,monospace" font-size="14.00">F</text>
</g>
<!-- Node0x564183a40d60 -->
<g id="node2" class="node">
<title>Node0x564183a40d60</title>
<polygon fill="#c32e31" fill-opacity="0.439216" stroke="#3d50c3" points="0,-159 0,-250 627,-250 627,-159 0,-159"/>
<text text-anchor="start" x="8" y="-234.8" font-family="Courier,monospace" font-size="14.00">5:</text>
<polyline fill="none" stroke="#3d50c3" points="0,-227 627,-227 "/>
<text text-anchor="start" x="8" y="-211.8" font-family="Courier,monospace" font-size="14.00">%6 = tail call noalias dereferenceable_or_null(24) ptr @malloc(i64 noundef</text>
<text text-anchor="start" x="8" y="-196.8" font-family="Courier,monospace" font-size="14.00">... 24) #9</text>
<text text-anchor="start" x="8" y="-181.8" font-family="Courier,monospace" font-size="14.00"> store i32 1, ptr %2, align 4, !tbaa !5</text>
<text text-anchor="start" x="8" y="-166.8" font-family="Courier,monospace" font-size="14.00"> br label %13</text>
</g>
<!-- Node0x564183a40bb0&#45;&gt;Node0x564183a40d60 -->
<g id="edge1" class="edge">
<title>Node0x564183a40bb0:s0&#45;&gt;Node0x564183a40d60</title>
<g id="a_edge1"><a xlink:title="1 &#45;&gt; 5&#10;Probability 37.50%">
<path fill="none" stroke="black" d="M420.5,-320.5C384.01,-320.5 356.44,-289.09 338.43,-259.1"/>
<polygon fill="black" stroke="black" points="341.39,-257.22 333.37,-250.29 335.31,-260.71 341.39,-257.22"/>
</a>
</g>
</g>
<!-- Node0x564183a45b80 -->
<g id="node3" class="node">
<title>Node0x564183a45b80</title>
<polygon fill="#bb1b2c" fill-opacity="0.439216" stroke="#b70d28" points="645,-136.5 645,-272.5 1206,-272.5 1206,-136.5 645,-136.5"/>
<text text-anchor="start" x="653" y="-257.3" font-family="Courier,monospace" font-size="14.00">7:</text>
<polyline fill="none" stroke="#b70d28" points="645,-249.5 1206,-249.5 "/>
<text text-anchor="start" x="653" y="-234.3" font-family="Courier,monospace" font-size="14.00">%8 = shl nsw i32 %3, 1</text>
<text text-anchor="start" x="653" y="-219.3" font-family="Courier,monospace" font-size="14.00"> store i32 %8, ptr %2, align 4, !tbaa !5</text>
<text text-anchor="start" x="653" y="-204.3" font-family="Courier,monospace" font-size="14.00"> %9 = load ptr, ptr %0, align 8, !tbaa !11</text>
<text text-anchor="start" x="653" y="-189.3" font-family="Courier,monospace" font-size="14.00"> %10 = sext i32 %8 to i64</text>
<text text-anchor="start" x="653" y="-174.3" font-family="Courier,monospace" font-size="14.00"> %11 = mul nsw i64 %10, 24</text>
<text text-anchor="start" x="653" y="-159.3" font-family="Courier,monospace" font-size="14.00"> %12 = tail call ptr @realloc(ptr noundef %9, i64 noundef %11) #10</text>
<text text-anchor="start" x="653" y="-144.3" font-family="Courier,monospace" font-size="14.00"> br label %13</text>
</g>
<!-- Node0x564183a40bb0&#45;&gt;Node0x564183a45b80 -->
<g id="edge2" class="edge">
<title>Node0x564183a40bb0:s1&#45;&gt;Node0x564183a45b80</title>
<g id="a_edge2"><a xlink:title="1 &#45;&gt; 7&#10;Probability 62.50%">
<path fill="none" stroke="black" d="M818.5,-320.5C846.07,-320.5 868.55,-302.57 885.66,-280.87"/>
<polygon fill="black" stroke="black" points="888.55,-282.84 891.72,-272.73 882.94,-278.66 888.55,-282.84"/>
</a>
</g>
</g>
<!-- Node0x564183a46580 -->
<g id="node4" class="node">
<title>Node0x564183a46580</title>
<polygon fill="#b70d28" fill-opacity="0.439216" stroke="#b70d28" points="446,-23.5 446,-99.5 793,-99.5 793,-23.5 446,-23.5"/>
<text text-anchor="start" x="454" y="-84.3" font-family="Courier,monospace" font-size="14.00">13:</text>
<polyline fill="none" stroke="#b70d28" points="446,-76.5 793,-76.5 "/>
<text text-anchor="start" x="454" y="-61.3" font-family="Courier,monospace" font-size="14.00">%.sink = phi ptr [ %6, %5 ], [ %12, %7 ]</text>
<text text-anchor="start" x="454" y="-46.3" font-family="Courier,monospace" font-size="14.00"> store ptr %.sink, ptr %0, align 8</text>
<text text-anchor="start" x="454" y="-31.3" font-family="Courier,monospace" font-size="14.00"> ret void</text>
</g>
<!-- Node0x564183a40d60&#45;&gt;Node0x564183a46580 -->
<g id="edge3" class="edge">
<title>Node0x564183a40d60&#45;&gt;Node0x564183a46580</title>
<g id="a_edge3"><a xlink:title="5 &#45;&gt; 13&#10;Probability 100.00%">
<path fill="none" stroke="black" d="M410.32,-158.89C448.58,-141.26 492.27,-121.12 529.8,-103.83"/>
<polygon fill="black" stroke="black" points="531.58,-106.86 539.2,-99.5 528.66,-100.51 531.58,-106.86"/>
</a>
</g>
</g>
<!-- Node0x564183a45b80&#45;&gt;Node0x564183a46580 -->
<g id="edge4" class="edge">
<title>Node0x564183a45b80&#45;&gt;Node0x564183a46580</title>
<g id="a_edge4"><a xlink:title="7 &#45;&gt; 13&#10;Probability 100.00%">
<path fill="none" stroke="black" d="M779.67,-136.3C755.69,-125.26 731.48,-114.1 709.4,-103.92"/>
<polygon fill="black" stroke="black" points="710.62,-100.63 700.07,-99.63 707.69,-106.99 710.62,-100.63"/>
</a>
</g>
</g>
</g>
</svg>
