<?xml version="1.0" encoding="UTF-8" standalone="no"?>
<!DOCTYPE svg PUBLIC "-//W3C//DTD SVG 1.1//EN"
 "http://www.w3.org/Graphics/SVG/1.1/DTD/svg11.dtd">
<!-- Generated by graphviz version 2.43.0 (0)
 -->
<!-- Title: CFG for &#39;SiftDown&#39; function Pages: 1 -->
<svg width="1029pt" height="1470pt"
 viewBox="0.00 0.00 1028.50 1470.00" xmlns="http://www.w3.org/2000/svg" xmlns:xlink="http://www.w3.org/1999/xlink">
<g id="graph0" class="graph" transform="scale(1 1) rotate(0) translate(4 1466)">
<title>CFG for &#39;SiftDown&#39; function</title>
<polygon fill="white" stroke="transparent" points="-4,4 -4,-1466 1024.5,-1466 1024.5,4 -4,4"/>
<text text-anchor="middle" x="510.25" y="-7.8" font-family="Times,serif" font-size="14.00">CFG for &#39;SiftDown&#39; function</text>
<!-- Node0x564183ab21b0 -->
<g id="node1" class="node">
<title>Node0x564183ab21b0</title>
<polygon fill="#d65244" fill-opacity="0.439216" stroke="#3d50c3" points="458,-1400.5 458,-1461.5 887,-1461.5 887,-1400.5 458,-1400.5"/>
<text text-anchor="start" x="466" y="-1446.3" font-family="Courier,monospace" font-size="14.00">2:</text>
<polyline fill="none" stroke="#3d50c3" points="458,-1438.5 887,-1438.5 "/>
<text text-anchor="start" x="466" y="-1423.3" font-family="Courier,monospace" font-size="14.00">%3 = getelementptr inbounds i8, ptr %0, i64 400004</text>
<text text-anchor="start" x="466" y="-1408.3" font-family="Courier,monospace" font-size="14.00"> br label %4</text>
</g>
<!-- Node0x564183ab2320 -->
<g id="node2" class="node">
<title>Node0x564183ab2320</title>
<polygon fill="#b70d28" fill-opacity="0.439216" stroke="#b70d28" points="495,-1204.5 495,-1363.5 850,-1363.5 850,-1204.5 495,-1204.5"/>
<text text-anchor="start" x="503" y="-1348.3" font-family="Courier,monospace" font-size="14.00">4:</text>
<polyline fill="none" stroke="#b70d28" points="495,-1340.5 850,-1340.5 "/>
<text text-anchor="start" x="503" y="-1325.3" font-family="Courier,monospace" font-size="14.00">%5 = phi i32 [ %1, %2 ], [ %45, %47 ]</text>
<text text-anchor="start" x="503" y="-1310.3" font-family="Courier,monospace" font-size="14.00"> %6 = shl nsw i32 %5, 1</text>
<text text-anchor="start" x="503" y="-1295.3" font-family="Courier,monospace" font-size="14.00"> %7 = or disjoint i32 %6, 1</text>
<text text-anchor="start" x="503" y="-1280.3" font-family="Courier,monospace" font-size="14.00"> %8 = add nsw i32 %6, 2</text>
<text text-anchor="start" x="503" y="-1265.3" font-family="Courier,monospace" font-size="14.00"> %9 = load i32, ptr %3, align 4, !tbaa !5</text>
<text text-anchor="start" x="503" y="-1250.3" font-family="Courier,monospace" font-size="14.00"> %10 = icmp slt i32 %7, %9</text>
<text text-anchor="start" x="503" y="-1235.3" font-family="Courier,monospace" font-size="14.00"> br i1 %10, label %11, label %26</text>
<polyline fill="none" stroke="#b70d28" points="495,-1227.5 850,-1227.5 "/>
<text text-anchor="middle" x="583.5" y="-1212.3" font-family="Courier,monospace" font-size="14.00">T</text>
<polyline fill="none" stroke="#b70d28" points="672,-1204.5 672,-1227.5 "/>
<text text-anchor="middle" x="761" y="-1212.3" font-family="Courier,monospace" font-size="14.00">F</text>
</g>
<!-- Node0x564183ab21b0&#45;&gt;Node0x564183ab2320 -->
<g id="edge1" class="edge">
<title>Node0x564183ab21b0&#45;&gt;Node0x564183ab2320</title>
<g id="a_edge1"><a xlink:title="2 &#45;&gt; 4&#10;Probability 100.00%">
<path fill="none" stroke="black" d="M672.5,-1400.31C672.5,-1392.4 672.5,-1383.43 672.5,-1374.07"/>
<polygon fill="black" stroke="black" points="676,-1373.79 672.5,-1363.79 669,-1373.79 676,-1373.79"/>
</a>
</g>
</g>
<!-- Node0x564183ab2980 -->
<g id="node3" class="node">
<title>Node0x564183ab2980</title>
<polygon fill="#be242e" fill-opacity="0.439216" stroke="#3d50c3" points="84,-911.5 84,-1167.5 695,-1167.5 695,-911.5 84,-911.5"/>
<text text-anchor="start" x="92" y="-1152.3" font-family="Courier,monospace" font-size="14.00">11:</text>
<polyline fill="none" stroke="#3d50c3" points="84,-1144.5 695,-1144.5 "/>
<text text-anchor="start" x="92" y="-1129.3" font-family="Courier,monospace" font-size="14.00">%12 = sext i32 %7 to i64</text>
<text text-anchor="start" x="92" y="-1114.3" font-family="Courier,monospace" font-size="14.00"> %13 = getelementptr inbounds [100001 x i32], ptr %0, i64 0, i64 %12</text>
<text text-anchor="start" x="92" y="-1099.3" font-family="Courier,monospace" font-size="14.00"> %14 = load i32, ptr %13, align 4, !tbaa !10</text>
<text text-anchor="start" x="92" y="-1084.3" font-family="Courier,monospace" font-size="14.00"> %15 = sext i32 %14 to i64</text>
<text text-anchor="start" x="92" y="-1069.3" font-family="Courier,monospace" font-size="14.00"> %16 = getelementptr inbounds [100001 x i64], ptr @dist1, i64 0, i64 %15</text>
<text text-anchor="start" x="92" y="-1054.3" font-family="Courier,monospace" font-size="14.00"> %17 = load i64, ptr %16, align 8, !tbaa !11</text>
<text text-anchor="start" x="92" y="-1039.3" font-family="Courier,monospace" font-size="14.00"> %18 = sext i32 %5 to i64</text>
<text text-anchor="start" x="92" y="-1024.3" font-family="Courier,monospace" font-size="14.00"> %19 = getelementptr inbounds [100001 x i32], ptr %0, i64 0, i64 %18</text>
<text text-anchor="start" x="92" y="-1009.3" font-family="Courier,monospace" font-size="14.00"> %20 = load i32, ptr %19, align 4, !tbaa !10</text>
<text text-anchor="start" x="92" y="-994.3" font-family="Courier,monospace" font-size="14.00"> %21 = sext i32 %20 to i64</text>
<text text-anchor="start" x="92" y="-979.3" font-family="Courier,monospace" font-size="14.00"> %22 = getelementptr inbounds [100001 x i64], ptr @dist1, i64 0, i64 %21</text>
<text text-anchor="start" x="92" y="-964.3" font-family="Courier,monospace" font-size="14.00"> %23 = load i64, ptr %22, align 8, !tbaa !11</text>
<text text-anchor="start" x="92" y="-949.3" font-family="Courier,monospace" font-size="14.00"> %24 = icmp ult i64 %17, %23</text>
<text text-anchor="start" x="92" y="-934.3" font-family="Courier,monospace" font-size="14.00"> %25 = select i1 %24, i32 %7, i32 %5</text>
<text text-anchor="start" x="92" y="-919.3" font-family="Courier,monospace" font-size="14.00"> br label %26</text>
</g>
<!-- Node0x564183ab2320&#45;&gt;Node0x564183ab2980 -->
<g id="edge2" class="edge">
<title>Node0x564183ab2320:s0&#45;&gt;Node0x564183ab2980</title>
<g id="a_edge2"><a xlink:title="4 &#45;&gt; 11&#10;Probability 50.00%">
<path fill="none" stroke="black" d="M493.5,-1216C465.58,-1216 445,-1199.36 429.88,-1176.33"/>
<polygon fill="black" stroke="black" points="432.74,-1174.3 424.55,-1167.58 426.76,-1177.94 432.74,-1174.3"/>
</a>
</g>
</g>
<!-- Node0x564183ab2a20 -->
<g id="node4" class="node">
<title>Node0x564183ab2a20</title>
<polygon fill="#b70d28" fill-opacity="0.439216" stroke="#b70d28" points="271.5,-775.5 271.5,-874.5 601.5,-874.5 601.5,-775.5 271.5,-775.5"/>
<text text-anchor="start" x="279.5" y="-859.3" font-family="Courier,monospace" font-size="14.00">26:</text>
<polyline fill="none" stroke="#b70d28" points="271.5,-851.5 601.5,-851.5 "/>
<text text-anchor="start" x="279.5" y="-836.3" font-family="Courier,monospace" font-size="14.00">%27 = phi i32 [ %5, %4 ], [ %25, %11 ]</text>
<text text-anchor="start" x="279.5" y="-821.3" font-family="Courier,monospace" font-size="14.00"> %28 = icmp slt i32 %8, %9</text>
<text text-anchor="start" x="279.5" y="-806.3" font-family="Courier,monospace" font-size="14.00"> br i1 %28, label %29, label %44</text>
<polyline fill="none" stroke="#b70d28" points="271.5,-798.5 601.5,-798.5 "/>
<text text-anchor="middle" x="354" y="-783.3" font-family="Courier,monospace" font-size="14.00">T</text>
<polyline fill="none" stroke="#b70d28" points="436.5,-775.5 436.5,-798.5 "/>
<text text-anchor="middle" x="519" y="-783.3" font-family="Courier,monospace" font-size="14.00">F</text>
</g>
<!-- Node0x564183ab2320&#45;&gt;Node0x564183ab2a20 -->
<g id="edge3" class="edge">
<title>Node0x564183ab2320:s1&#45;&gt;Node0x564183ab2a20</title>
<g id="a_edge3"><a xlink:title="4 &#45;&gt; 26&#10;Probability 50.00%">
<path fill="none" stroke="black" d="M761.5,-1204C761.5,-1071.34 792.76,-1010.04 704.5,-911 679.94,-883.44 646.49,-864.74 611.56,-852.08"/>
<polygon fill="black" stroke="black" points="612.27,-848.62 601.67,-848.66 609.98,-855.24 612.27,-848.62"/>
</a>
</g>
</g>
<!-- Node0x564183ab2980&#45;&gt;Node0x564183ab2a20 -->
<g id="edge4" class="edge">
<title>Node0x564183ab2980&#45;&gt;Node0x564183ab2a20</title>
<g id="a_edge4"><a xlink:title="11 &#45;&gt; 26&#10;Probability 100.00%">
<path fill="none" stroke="black" d="M417.65,-911.21C419.68,-902.03 421.66,-893.08 423.53,-884.63"/>
<polygon fill="black" stroke="black" points="427.01,-885.11 425.75,-874.59 420.18,-883.6 427.01,-885.11"/>
</a>
</g>
</g>
<!-- Node0x564183ab3c70 -->
<g id="node5" class="node">
<title>Node0x564183ab3c70</title>
<polygon fill="#be242e" fill-opacity="0.439216" stroke="#3d50c3" points="0,-482.5 0,-738.5 611,-738.5 611,-482.5 0,-482.5"/>
<text text-anchor="start" x="8" y="-723.3" font-family="Courier,monospace" font-size="14.00">29:</text>
<polyline fill="none" stroke="#3d50c3" points="0,-715.5 611,-715.5 "/>
<text text-anchor="start" x="8" y="-700.3" font-family="Courier,monospace" font-size="14.00">%30 = sext i32 %8 to i64</text>
<text text-anchor="start" x="8" y="-685.3" font-family="Courier,monospace" font-size="14.00"> %31 = getelementptr inbounds [100001 x i32], ptr %0, i64 0, i64 %30</text>
<text text-anchor="start" x="8" y="-670.3" font-family="Courier,monospace" font-size="14.00"> %32 = load i32, ptr %31, align 4, !tbaa !10</text>
<text text-anchor="start" x="8" y="-655.3" font-family="Courier,monospace" font-size="14.00"> %33 = sext i32 %32 to i64</text>
<text text-anchor="start" x="8" y="-640.3" font-family="Courier,monospace" font-size="14.00"> %34 = getelementptr inbounds [100001 x i64], ptr @dist1, i64 0, i64 %33</text>
<text text-anchor="start" x="8" y="-625.3" font-family="Courier,monospace" font-size="14.00"> %35 = load i64, ptr %34, align 8, !tbaa !11</text>
<text text-anchor="start" x="8" y="-610.3" font-family="Courier,monospace" font-size="14.00"> %36 = sext i32 %27 to i64</text>
<text text-anchor="start" x="8" y="-595.3" font-family="Courier,monospace" font-size="14.00"> %37 = getelementptr inbounds [100001 x i32], ptr %0, i64 0, i64 %36</text>
<text text-anchor="start" x="8" y="-580.3" font-family="Courier,monospace" font-size="14.00"> %38 = load i32, ptr %37, align 4, !tbaa !10</text>
<text text-anchor="start" x="8" y="-565.3" font-family="Courier,monospace" font-size="14.00"> %39 = sext i32 %38 to i64</text>
<text text-anchor="start" x="8" y="-550.3" font-family="Courier,monospace" font-size="14.00"> %40 = getelementptr inbounds [100001 x i64], ptr @dist1, i64 0, i64 %39</text>
<text text-anchor="start" x="8" y="-535.3" font-family="Courier,monospace" font-size="14.00"> %41 = load i64, ptr %40, align 8, !tbaa !11</text>
<text text-anchor="start" x="8" y="-520.3" font-family="Courier,monospace" font-size="14.00"> %42 = icmp ult i64 %35, %41</text>
<text text-anchor="start" x="8" y="-505.3" font-family="Courier,monospace" font-size="14.00"> %43 = select i1 %42, i32 %8, i32 %27</text>
<text text-anchor="start" x="8" y="-490.3" font-family="Courier,monospace" font-size="14.00"> br label %44</text>
</g>
<!-- Node0x564183ab2a20&#45;&gt;Node0x564183ab3c70 -->
<g id="edge5" class="edge">
<title>Node0x564183ab2a20:s0&#45;&gt;Node0x564183ab3c70</title>
<g id="a_edge5"><a xlink:title="26 &#45;&gt; 29&#10;Probability 50.00%">
<path fill="none" stroke="black" d="M353.5,-775C353.5,-766.29 352.87,-757.43 351.74,-748.56"/>
<polygon fill="black" stroke="black" points="355.19,-747.93 350.28,-738.55 348.26,-748.95 355.19,-747.93"/>
</a>
</g>
</g>
<!-- Node0x564183ab3cd0 -->
<g id="node6" class="node">
<title>Node0x564183ab3cd0</title>
<polygon fill="#b70d28" fill-opacity="0.439216" stroke="#b70d28" points="314,-346.5 314,-445.5 661,-445.5 661,-346.5 314,-346.5"/>
<text text-anchor="start" x="322" y="-430.3" font-family="Courier,monospace" font-size="14.00">44:</text>
<polyline fill="none" stroke="#b70d28" points="314,-422.5 661,-422.5 "/>
<text text-anchor="start" x="322" y="-407.3" font-family="Courier,monospace" font-size="14.00">%45 = phi i32 [ %27, %26 ], [ %43, %29 ]</text>
<text text-anchor="start" x="322" y="-392.3" font-family="Courier,monospace" font-size="14.00"> %46 = icmp eq i32 %45, %5</text>
<text text-anchor="start" x="322" y="-377.3" font-family="Courier,monospace" font-size="14.00"> br i1 %46, label %60, label %47</text>
<polyline fill="none" stroke="#b70d28" points="314,-369.5 661,-369.5 "/>
<text text-anchor="middle" x="400.5" y="-354.3" font-family="Courier,monospace" font-size="14.00">T</text>
<polyline fill="none" stroke="#b70d28" points="487,-346.5 487,-369.5 "/>
<text text-anchor="middle" x="574" y="-354.3" font-family="Courier,monospace" font-size="14.00">F</text>
</g>
<!-- Node0x564183ab2a20&#45;&gt;Node0x564183ab3cd0 -->
<g id="edge6" class="edge">
<title>Node0x564183ab2a20:s1&#45;&gt;Node0x564183ab3cd0</title>
<g id="a_edge6"><a xlink:title="26 &#45;&gt; 44&#10;Probability 50.00%">
<path fill="none" stroke="black" d="M602.5,-787C661.4,-787 755.11,-727.78 620.5,-482 614.42,-470.91 606.21,-461.05 596.84,-452.34"/>
<polygon fill="black" stroke="black" points="598.93,-449.53 589.09,-445.61 594.34,-454.81 598.93,-449.53"/>
</a>
</g>
</g>
<!-- Node0x564183ab3c70&#45;&gt;Node0x564183ab3cd0 -->
<g id="edge7" class="edge">
<title>Node0x564183ab3c70&#45;&gt;Node0x564183ab3cd0</title>
<g id="a_edge7"><a xlink:title="29 &#45;&gt; 44&#10;Probability 100.00%">
<path fill="none" stroke="black" d="M414.52,-482.21C423.07,-472.23 431.4,-462.5 439.19,-453.41"/>
<polygon fill="black" stroke="black" points="442.04,-455.46 445.88,-445.59 436.72,-450.91 442.04,-455.46"/>
</a>
</g>
</g>
<!-- Node0x564183ab47e0 -->
<g id="node7" class="node">
<title>Node0x564183ab47e0</title>
<polygon fill="#d65244" fill-opacity="0.439216" stroke="#3d50c3" points="325,-143.5 325,-189.5 408,-189.5 408,-143.5 325,-143.5"/>
<text text-anchor="start" x="333" y="-174.3" font-family="Courier,monospace" font-size="14.00">60:</text>
<polyline fill="none" stroke="#3d50c3" points="325,-166.5 408,-166.5 "/>
<text text-anchor="start" x="333" y="-151.3" font-family="Courier,monospace" font-size="14.00">ret void</text>
</g>
<!-- Node0x564183ab3cd0&#45;&gt;Node0x564183ab47e0 -->
<g id="edge8" class="edge">
<title>Node0x564183ab3cd0:s0&#45;&gt;Node0x564183ab47e0</title>
<g id="a_edge8"><a xlink:title="44 &#45;&gt; 60&#10;Probability 3.12%">
<path fill="none" stroke="black" d="M400.5,-346C400.5,-293.89 386.34,-234.7 376.3,-199.27"/>
<polygon fill="black" stroke="black" points="379.61,-198.13 373.46,-189.51 372.89,-200.08 379.61,-198.13"/>
</a>
</g>
</g>
<!-- Node0x564183ab2420 -->
<g id="node8" class="node">
<title>Node0x564183ab2420</title>
<polygon fill="#b70d28" fill-opacity="0.439216" stroke="#b70d28" points="426.5,-23.5 426.5,-309.5 1020.5,-309.5 1020.5,-23.5 426.5,-23.5"/>
<text text-anchor="start" x="434.5" y="-294.3" font-family="Courier,monospace" font-size="14.00">47:</text>
<polyline fill="none" stroke="#b70d28" points="426.5,-286.5 1020.5,-286.5 "/>
<text text-anchor="start" x="434.5" y="-271.3" font-family="Courier,monospace" font-size="14.00">%48 = sext i32 %5 to i64</text>
<text text-anchor="start" x="434.5" y="-256.3" font-family="Courier,monospace" font-size="14.00"> %49 = getelementptr inbounds [100001 x i32], ptr %0, i64 0, i64 %48</text>
<text text-anchor="start" x="434.5" y="-241.3" font-family="Courier,monospace" font-size="14.00"> %50 = sext i32 %45 to i64</text>
<text text-anchor="start" x="434.5" y="-226.3" font-family="Courier,monospace" font-size="14.00"> %51 = getelementptr inbounds [100001 x i32], ptr %0, i64 0, i64 %50</text>
<text text-anchor="start" x="434.5" y="-211.3" font-family="Courier,monospace" font-size="14.00"> %52 = load i32, ptr %49, align 4, !tbaa !10</text>
<text text-anchor="start" x="434.5" y="-196.3" font-family="Courier,monospace" font-size="14.00"> %53 = load i32, ptr %51, align 4, !tbaa !10</text>
<text text-anchor="start" x="434.5" y="-181.3" font-family="Courier,monospace" font-size="14.00"> store i32 %53, ptr %49, align 4, !tbaa !10</text>
<text text-anchor="start" x="434.5" y="-166.3" font-family="Courier,monospace" font-size="14.00"> store i32 %52, ptr %51, align 4, !tbaa !10</text>
<text text-anchor="start" x="434.5" y="-151.3" font-family="Courier,monospace" font-size="14.00"> %54 = load i32, ptr %49, align 4, !tbaa !10</text>
<text text-anchor="start" x="434.5" y="-136.3" font-family="Courier,monospace" font-size="14.00"> %55 = sext i32 %54 to i64</text>
<text text-anchor="start" x="434.5" y="-121.3" font-family="Courier,monospace" font-size="14.00"> %56 = getelementptr inbounds [100001 x i32], ptr @num, i64 0, i64 %55</text>
<text text-anchor="start" x="434.5" y="-106.3" font-family="Courier,monospace" font-size="14.00"> store i32 %5, ptr %56, align 4, !tbaa !10</text>
<text text-anchor="start" x="434.5" y="-91.3" font-family="Courier,monospace" font-size="14.00"> %57 = load i32, ptr %51, align 4, !tbaa !10</text>
<text text-anchor="start" x="434.5" y="-76.3" font-family="Courier,monospace" font-size="14.00"> %58 = sext i32 %57 to i64</text>
<text text-anchor="start" x="434.5" y="-61.3" font-family="Courier,monospace" font-size="14.00"> %59 = getelementptr inbounds [100001 x i32], ptr @num, i64 0, i64 %58</text>
<text text-anchor="start" x="434.5" y="-46.3" font-family="Courier,monospace" font-size="14.00"> store i32 %45, ptr %59, align 4, !tbaa !10</text>
<text text-anchor="start" x="434.5" y="-31.3" font-family="Courier,monospace" font-size="14.00"> br label %4</text>
</g>
<!-- Node0x564183ab3cd0&#45;&gt;Node0x564183ab2420 -->
<g id="edge9" class="edge">
<title>Node0x564183ab3cd0:s1&#45;&gt;Node0x564183ab2420</title>
<g id="a_edge9"><a xlink:title="44 &#45;&gt; 47&#10;Probability 96.88%">
<path fill="none" stroke="black" d="M662.5,-358C688.25,-358 704.2,-342.02 713.87,-319.31"/>
<polygon fill="black" stroke="black" points="717.15,-320.52 717.4,-309.93 710.6,-318.06 717.15,-320.52"/>
</a>
</g>
</g>
<!-- Node0x564183ab2420&#45;&gt;Node0x564183ab2320 -->
<g id="edge10" class="edge">
<title>Node0x564183ab2420&#45;&gt;Node0x564183ab2320</title>
<g id="a_edge10"><a xlink:title="47 &#45;&gt; 4&#10;Probability 100.00%">
<path fill="none" stroke="black" d="M723.5,-309.83C723.5,-396.46 723.5,-509.36 723.5,-609.5 723.5,-826 723.5,-826 723.5,-826 723.5,-978.23 729.27,-1017.79 704.5,-1168 703.08,-1176.62 701.26,-1185.51 699.21,-1194.36"/>
<polygon fill="black" stroke="black" points="695.75,-1193.78 696.81,-1204.32 702.55,-1195.42 695.75,-1193.78"/>
</a>
</g>
</g>
</g>
</svg>
